<svg xmlns="http://www.w3.org/2000/svg" xmlns:xlink="http://www.w3.org/1999/xlink" width="89" height="89" viewBox="0 0 89 89">
  <defs>
    <filter id="Rectangle_2295" x="0" y="0" width="89" height="89" filterUnits="userSpaceOnUse">
      <feOffset dy="3" input="SourceAlpha"/>
      <feGaussianBlur stdDeviation="5" result="blur"/>
      <feFlood flood-color="#5ba2fd" flood-opacity="0.451"/>
      <feComposite operator="in" in2="blur"/>
      <feComposite in="SourceGraphic"/>
    </filter>
    <clipPath id="clip-path">
      <rect id="Rectangle_2296" data-name="Rectangle 2296" width="33" height="33" fill="#faf9f9" stroke="#707070" stroke-width="1"/>
    </clipPath>
  </defs>
  <g id="_2" data-name="2" transform="translate(-122 -3)">
    <g transform="matrix(1, 0, 0, 1, 122, 3)" filter="url(#Rectangle_2295)">
      <rect id="Rectangle_2295-2" data-name="Rectangle 2295" width="59" height="59" rx="4" transform="translate(15 12)" fill="#5ba2fd"/>
    </g>
    <g id="Mask_Group_178" data-name="Mask Group 178" transform="translate(150 28)" clip-path="url(#clip-path)">
      <g id="logistics" transform="translate(1.772)">
        <path id="Path_6036" data-name="Path 6036" d="M13.547,0H15.48V3.932H13.547Z" transform="translate(-1.772)" fill="#faf9f9"/>
        <path id="Path_6037" data-name="Path 6037" d="M20.271,10.7V10.38a.967.967,0,0,1,.967-.967h2.021V.967A.967.967,0,0,0,22.292,0H17.414V4.9a.967.967,0,0,1-.967.967H12.58a.967.967,0,0,1-.967-.967V0H6.735a.967.967,0,0,0-.967.967V13.6h9.4a3.551,3.551,0,0,1,3.486-2.9Z" transform="translate(-1.772)" fill="#faf9f9"/>
        <path id="Path_6038" data-name="Path 6038" d="M9.537,15.533h1.94v3.932H9.537Z" transform="translate(-1.772)" fill="#faf9f9"/>
        <path id="Path_6039" data-name="Path 6039" d="M13.411,20.432a.967.967,0,0,1-.967.967H8.571a.967.967,0,0,1-.967-.967v-4.9H2.739a.967.967,0,0,0-.967.967V32.018a.967.967,0,0,0,.967.967H15.114V15.533h-1.7Z" transform="translate(-1.772)" fill="#faf9f9"/>
        <path id="Path_6040" data-name="Path 6040" d="M22.2,11.347h3.867v2.446H22.2Z" transform="translate(-1.772)" fill="#faf9f9"/>
        <path id="Path_6041" data-name="Path 6041" d="M29.616,12.633H28V14.76a.967.967,0,0,1-.967.967h-5.8a.967.967,0,0,1-.967-.967V12.633H18.659a1.611,1.611,0,0,0-1.611,1.611V31.389A1.611,1.611,0,0,0,18.659,33H29.616a1.611,1.611,0,0,0,1.611-1.611V14.244A1.611,1.611,0,0,0,29.616,12.633Zm-1.229,8.74-4.834,4.834a.967.967,0,0,1-1.367,0L20.275,24.3a.967.967,0,0,1,1.367-1.367l1.227,1.227,4.15-4.15a.967.967,0,1,1,1.367,1.367Z" transform="translate(-1.772)" fill="#faf9f9"/>
      </g>
    </g>
  </g>
</svg>
