<svg xmlns="http://www.w3.org/2000/svg" xmlns:xlink="http://www.w3.org/1999/xlink" width="89" height="89" viewBox="0 0 89 89">
  <defs>
    <filter id="Rectangle_2295" x="0" y="0" width="89" height="89" filterUnits="userSpaceOnUse">
      <feOffset dy="3" input="SourceAlpha"/>
      <feGaussianBlur stdDeviation="5" result="blur"/>
      <feFlood flood-color="#ffbc00" flood-opacity="0.451"/>
      <feComposite operator="in" in2="blur"/>
      <feComposite in="SourceGraphic"/>
    </filter>
    <clipPath id="clip-path">
      <rect id="Rectangle_2296" data-name="Rectangle 2296" width="33" height="33" fill="#fff" stroke="#707070" stroke-width="1"/>
    </clipPath>
  </defs>
  <g id="_3" data-name="3" transform="translate(-122 -3)">
    <g transform="matrix(1, 0, 0, 1, 122, 3)" filter="url(#Rectangle_2295)">
      <rect id="Rectangle_2295-2" data-name="Rectangle 2295" width="59" height="59" rx="4" transform="translate(15 12)" fill="#ffbc00"/>
    </g>
    <g id="Mask_Group_179" data-name="Mask Group 179" transform="translate(150 28)" clip-path="url(#clip-path)">
      <g id="delivery-time">
        <path id="Path_6042" data-name="Path 6042" d="M9.926,0h3.416V5.865H9.926Z" fill="#fff"/>
        <path id="Path_6043" data-name="Path 6043" d="M23.268,10.764V1.934A1.936,1.936,0,0,0,21.334,0H15.275V6.832a.967.967,0,0,1-.967.967H8.959a.967.967,0,0,1-.967-.967V0H1.934A1.936,1.936,0,0,0,0,1.934V22.3a1.936,1.936,0,0,0,1.934,1.934H9.8V13.664a2.9,2.9,0,0,1,2.9-2.9Z" fill="#fff"/>
        <path id="Path_6044" data-name="Path 6044" d="M32.033,12.7H30.1v1.547a.967.967,0,0,1-1.934,0V12.7H26.232v1.547a.967.967,0,0,1-1.934,0V12.7H20.367v1.547a.967.967,0,0,1-1.934,0V12.7H16.5v1.547a.967.967,0,0,1-1.934,0V12.7H12.7a.967.967,0,0,0-.967.967V32.033A.967.967,0,0,0,12.7,33H32.033A.967.967,0,0,0,33,32.033V13.664A.967.967,0,0,0,32.033,12.7ZM22.365,29.069a3.221,3.221,0,0,1-3.212-3.212.967.967,0,0,1,1.934,0,1.279,1.279,0,1,0,1.279-1.279.967.967,0,0,1,0-1.934,1.279,1.279,0,1,0-1.255-1.527.967.967,0,0,1-1.9-.373,3.212,3.212,0,1,1,5.447,2.867,3.215,3.215,0,0,1-2.295,5.458Z" fill="#fff"/>
      </g>
    </g>
  </g>
</svg>
