<svg xmlns="http://www.w3.org/2000/svg" xmlns:xlink="http://www.w3.org/1999/xlink" width="89" height="89" viewBox="0 0 89 89">
  <defs>
    <filter id="Rectangle_2295" x="0" y="0" width="89" height="89" filterUnits="userSpaceOnUse">
      <feOffset dy="3" input="SourceAlpha"/>
      <feGaussianBlur stdDeviation="5" result="blur"/>
      <feFlood flood-color="#20cc86" flood-opacity="0.451"/>
      <feComposite operator="in" in2="blur"/>
      <feComposite in="SourceGraphic"/>
    </filter>
    <clipPath id="clip-path">
      <rect id="Rectangle_2296" data-name="Rectangle 2296" width="33" height="33" fill="#fff" stroke="#707070" stroke-width="1"/>
    </clipPath>
  </defs>
  <g id="_4" data-name="4" transform="translate(-122 -3)">
    <g transform="matrix(1, 0, 0, 1, 122, 3)" filter="url(#Rectangle_2295)">
      <rect id="Rectangle_2295-2" data-name="Rectangle 2295" width="59" height="59" rx="4" transform="translate(15 12)" fill="#20cc86"/>
    </g>
    <g id="Mask_Group_180" data-name="Mask Group 180" transform="translate(150 28)" clip-path="url(#clip-path)">
      <g id="insurance_1_" data-name="insurance (1)" transform="translate(0 0)">
        <path id="Path_6045" data-name="Path 6045" d="M13.71,5.93H10.7V13.6h5.017A20.13,20.13,0,0,1,13.71,5.93Z" transform="translate(0 0)" fill="#fff"/>
        <path id="Path_6046" data-name="Path 6046" d="M23.162,21.116a15.949,15.949,0,0,1-6.323-5.583H9.732a.967.967,0,0,1-.967-.967V5.93H2.9A2.9,2.9,0,0,0,0,8.83V30.1A2.9,2.9,0,0,0,2.9,33H24.17a2.9,2.9,0,0,0,2.9-2.9V20.2a11.128,11.128,0,0,1-1.646.915,2.9,2.9,0,0,1-2.262,0ZM10.7,29.068H4.9a.967.967,0,0,1,0-1.934h5.8a.967.967,0,0,1,0,1.934Zm0-3.867H4.9a.967.967,0,0,1,0-1.934h5.8a.967.967,0,0,1,0,1.934Z" transform="translate(0 0)" fill="#fff"/>
        <path id="Path_6047" data-name="Path 6047" d="M32.41,3.354,24.67.077a.966.966,0,0,0-.754,0l-7.74,3.277a.967.967,0,0,0-.59.89A17.463,17.463,0,0,0,19.7,16.082a13.058,13.058,0,0,0,4.217,3.253.966.966,0,0,0,.754,0,13.055,13.055,0,0,0,4.217-3.253A17.463,17.463,0,0,0,33,4.244.967.967,0,0,0,32.41,3.354ZM28.071,7.707l-3.353,3.353a.967.967,0,0,1-1.367,0L21.418,9.127A.967.967,0,0,1,22.785,7.76l1.25,1.25L26.7,6.34a.967.967,0,1,1,1.367,1.367Z" transform="translate(0 0)" fill="#fff"/>
      </g>
    </g>
  </g>
</svg>
