<svg xmlns="http://www.w3.org/2000/svg" xmlns:xlink="http://www.w3.org/1999/xlink" width="30" height="30" viewBox="0 0 30 30">
  <defs>
    <clipPath id="clip-path">
      <rect id="Rectangle_2285" data-name="Rectangle 2285" width="30" height="30" transform="translate(1510 190)" fill="#fff" stroke="#707070" stroke-width="1"/>
    </clipPath>
  </defs>
  <g id="add-emp" transform="translate(-1510 -190)" clip-path="url(#clip-path)">
    <g id="briefcase_1_" data-name="briefcase (1)" transform="translate(1510 190)">
      <g id="Group_4603" data-name="Group 4603">
        <path id="Path_6467" data-name="Path 6467" d="M21.174,7.939H19.417V5.314a1.793,1.793,0,0,0-1.791-1.791H12.375a1.793,1.793,0,0,0-1.791,1.791V7.939H8.826V5.314a3.553,3.553,0,0,1,3.549-3.549h5.251a3.553,3.553,0,0,1,3.549,3.549Z" fill="#464b52"/>
      </g>
      <path id="Path_6468" data-name="Path 6468" d="M17.625,1.765H15V3.523h2.625a1.793,1.793,0,0,1,1.791,1.791V7.939h1.758V5.314a3.553,3.553,0,0,0-3.549-3.549Z" fill="#292b2f"/>
      <g id="Group_4604" data-name="Group 4604">
        <path id="Path_6469" data-name="Path 6469" d="M25.671,28.235H4.329A4.334,4.334,0,0,1,0,23.906V7.939s7.7,9.712,15,9.712S30,7.939,30,7.939V23.906A4.334,4.334,0,0,1,25.671,28.235Z" fill="#b37236"/>
      </g>
      <path id="Path_6470" data-name="Path 6470" d="M25.671,28.235A4.334,4.334,0,0,0,30,23.906V7.939s-7.7,9.712-15,9.712V28.235Z" fill="#95623a"/>
      <g id="Group_4605" data-name="Group 4605">
        <path id="Path_6471" data-name="Path 6471" d="M15,19.409A17.568,17.568,0,0,1,4.488,16.131,10.268,10.268,0,0,1,0,7.939.879.879,0,0,1,.879,7.06H29.121A.879.879,0,0,1,30,7.939a10.268,10.268,0,0,1-4.488,8.192A17.568,17.568,0,0,1,15,19.409Z" fill="#c99251"/>
      </g>
      <path id="Path_6472" data-name="Path 6472" d="M29.121,7.06H15V19.409a17.568,17.568,0,0,0,10.512-3.278A10.268,10.268,0,0,0,30,7.939.879.879,0,0,0,29.121,7.06Z" fill="#bd8041"/>
      <path id="Path_6473" data-name="Path 6473" d="M17.873,14.778H12.127a.879.879,0,0,0-.879.879V18.53a3.752,3.752,0,0,0,7.5,0V15.657a.879.879,0,0,0-.879-.879Z" fill="#faf139"/>
      <path id="Path_6474" data-name="Path 6474" d="M17.873,14.778H15v7.5a3.756,3.756,0,0,0,3.752-3.752V15.657a.879.879,0,0,0-.879-.879Z" fill="#fbd46d"/>
    </g>
  </g>
</svg>
