<svg xmlns="http://www.w3.org/2000/svg" xmlns:xlink="http://www.w3.org/1999/xlink" width="30" height="30" viewBox="0 0 30 30">
  <defs>
    <clipPath id="clip-path">
      <rect id="Rectangle_2285" data-name="Rectangle 2285" width="30" height="30" transform="translate(1510 190)" fill="#fff" stroke="#707070" stroke-width="1"/>
    </clipPath>
  </defs>
  <g id="all-cus" transform="translate(-1510 -190)" clip-path="url(#clip-path)">
    <g id="team_1_" data-name="team (1)" transform="translate(1510 190)">
      <g id="Group_4597" data-name="Group 4597">
        <g id="Group_4596" data-name="Group 4596">
          <path id="Path_6425" data-name="Path 6425" d="M2.307,17.059V28.046a.738.738,0,0,0,.649.649H8.384a.735.735,0,0,0,.649-.649V17.059Z" fill="#ffb302"/>
          <path id="Path_6426" data-name="Path 6426" d="M20.966,17.059V28.046a.738.738,0,0,0,.649.649h5.43a.738.738,0,0,0,.649-.649V17.059Z" fill="#6aa2e6"/>
          <path id="Path_6427" data-name="Path 6427" d="M11.637,17.059V28.046a.738.738,0,0,0,.649.649h5.43a.738.738,0,0,0,.65-.649V17.059Z" fill="#c0a1d9"/>
          <path id="Path_6428" data-name="Path 6428" d="M17.618,7.08H12.382A2.621,2.621,0,0,0,9.77,9.693v5.725a1.868,1.868,0,0,0,1.867,1.869h6.729a1.869,1.869,0,0,0,1.867-1.869V9.693A2.622,2.622,0,0,0,17.618,7.08Z" fill="#ebd2ff"/>
          <path id="Path_6429" data-name="Path 6429" d="M17.618,7.08H16.2A2.622,2.622,0,0,1,18.81,9.693v5.725a1.869,1.869,0,0,1-1.869,1.869h1.423a1.869,1.869,0,0,0,1.867-1.869V9.693A2.622,2.622,0,0,0,17.618,7.08Z" fill="#d7bef0"/>
          <path id="Path_6430" data-name="Path 6430" d="M15.158,8.289l1.176,4.136a.457.457,0,0,1-.131.458l-1,.907a.324.324,0,0,1-.415,0l-1-.907a.449.449,0,0,1-.13-.458l1.174-4.136A.167.167,0,0,1,15,8.166a.165.165,0,0,1,.161.123Z" fill="#ff6978"/>
          <path id="Path_6431" data-name="Path 6431" d="M8.288,7.08H3.053A2.621,2.621,0,0,0,.44,9.693v5.725a1.868,1.868,0,0,0,1.867,1.869H9.034A1.868,1.868,0,0,0,10.9,15.418V9.693A2.621,2.621,0,0,0,8.288,7.08Z" fill="#fbd46d"/>
          <path id="Path_6432" data-name="Path 6432" d="M26.947,7.08H21.714A2.621,2.621,0,0,0,19.1,9.693v5.725a1.868,1.868,0,0,0,1.867,1.869h6.728a1.869,1.869,0,0,0,1.867-1.869V9.693A2.621,2.621,0,0,0,26.947,7.08Z" fill="#a5cdff"/>
          <path id="Path_6433" data-name="Path 6433" d="M26.947,7.08H25.525A2.622,2.622,0,0,1,28.14,9.693v5.725a1.869,1.869,0,0,1-1.867,1.869h1.422a1.869,1.869,0,0,0,1.867-1.869V9.693A2.621,2.621,0,0,0,26.947,7.08Z" fill="#8abfff"/>
          <path id="Path_6434" data-name="Path 6434" d="M5.828,8.289,7,12.425a.461.461,0,0,1-.131.458l-1,.907a.324.324,0,0,1-.415,0l-1-.907a.449.449,0,0,1-.131-.458L5.506,8.289a.167.167,0,0,1,.322,0Z" fill="#ff6978"/>
          <path id="Path_6435" data-name="Path 6435" d="M24.487,8.289l1.176,4.136a.457.457,0,0,1-.131.458l-1,.907a.324.324,0,0,1-.415,0l-1-.907a.449.449,0,0,1-.13-.458l1.174-4.136a.167.167,0,0,1,.161-.123.165.165,0,0,1,.161.123Z" fill="#ff6978"/>
          <g id="Group_4595" data-name="Group 4595">
            <path id="Path_6436" data-name="Path 6436" d="M17.475,5.348a2.478,2.478,0,1,1-4.956,0V2.693a1.39,1.39,0,0,1,1.387-1.387h2.183a1.39,1.39,0,0,1,1.387,1.387Z" fill="#ffcbbe"/>
            <path id="Path_6437" data-name="Path 6437" d="M26.8,5.348a2.478,2.478,0,0,1-4.956,0V2.693a1.39,1.39,0,0,1,1.387-1.387h2.182A1.39,1.39,0,0,1,26.8,2.693Z" fill="#ffcbbe"/>
            <path id="Path_6438" data-name="Path 6438" d="M8.145,5.348a2.478,2.478,0,0,1-4.956,0V2.693A1.392,1.392,0,0,1,4.576,1.306h3.2a.332.332,0,0,1,.369.369Z" fill="#ffcbbe"/>
          </g>
          <path id="Path_6439" data-name="Path 6439" d="M21.848,2.693V4.323l1.694-.83a.853.853,0,0,1,.683-.045l2.579.875V2.693a1.39,1.39,0,0,0-1.387-1.387H23.235a1.39,1.39,0,0,0-1.387,1.387Z" fill="#477b9e"/>
          <path id="Path_6440" data-name="Path 6440" d="M12.519,2.693v.965a1.886,1.886,0,0,0,1.618-.15c.261-.15.3-.178.563.048a2.966,2.966,0,0,0,2.775.463V2.693a1.39,1.39,0,0,0-1.387-1.387H13.905a1.39,1.39,0,0,0-1.387,1.387Z" fill="#c68b87"/>
          <path id="Path_6441" data-name="Path 6441" d="M3.189,2.693v.8H8.145V1.675a.332.332,0,0,0-.369-.369h-3.2A1.392,1.392,0,0,0,3.189,2.693Z" fill="#ffe5a0"/>
          <path id="Path_6442" data-name="Path 6442" d="M6.021,7.08a2.507,2.507,0,0,1-1.061.643A2.482,2.482,0,0,0,8.145,5.348V3.492H6.73V5.348A2.471,2.471,0,0,1,6.021,7.08Z" fill="#f7beaf"/>
          <path id="Path_6443" data-name="Path 6443" d="M6.73,1.675V3.492H8.145V1.675a.332.332,0,0,0-.369-.369H6.361a.332.332,0,0,1,.369.369Z" fill="#f2ce7e"/>
          <path id="Path_6444" data-name="Path 6444" d="M15.35,7.08a2.507,2.507,0,0,1-1.061.643,2.482,2.482,0,0,0,3.186-2.375V4.02a3.336,3.336,0,0,1-1.415.136V5.348A2.472,2.472,0,0,1,15.35,7.08Z" fill="#f7beaf"/>
          <path id="Path_6445" data-name="Path 6445" d="M16.06,2.693V4.157a3.336,3.336,0,0,0,1.415-.136V2.693a1.39,1.39,0,0,0-1.387-1.387H14.673A1.39,1.39,0,0,1,16.06,2.693Z" fill="#bd7d79"/>
          <path id="Path_6446" data-name="Path 6446" d="M24.68,7.08a2.507,2.507,0,0,1-1.061.643A2.482,2.482,0,0,0,26.8,5.348V4.323l-1.415-.48v1.5A2.471,2.471,0,0,1,24.68,7.08Z" fill="#f7beaf"/>
          <path id="Path_6447" data-name="Path 6447" d="M25.389,2.693V3.843l1.415.48V2.693a1.39,1.39,0,0,0-1.387-1.387H24a1.39,1.39,0,0,1,1.387,1.387Z" fill="#365e7d"/>
          <path id="Path_6448" data-name="Path 6448" d="M26.279,17.285V28.272a.738.738,0,0,1-.2.424h.962a.738.738,0,0,0,.649-.649V17.286Q26.987,17.284,26.279,17.285Z" fill="#5a94db"/>
          <path id="Path_6449" data-name="Path 6449" d="M7.619,17.285V28.272a.729.729,0,0,1-.2.424h.963a.734.734,0,0,0,.648-.649V17.286q-.708,0-1.415,0Z" fill="#ffb302"/>
          <path id="Path_6450" data-name="Path 6450" d="M16.948,17.285V28.272a.727.727,0,0,1-.194.424h.962a.738.738,0,0,0,.65-.649V17.286Q17.657,17.284,16.948,17.285Z" fill="#b592d1"/>
          <path id="Path_6451" data-name="Path 6451" d="M8.288,7.08H6.866A2.621,2.621,0,0,1,9.479,9.693v5.725a1.868,1.868,0,0,1-1.867,1.869H9.034A1.868,1.868,0,0,0,10.9,15.418V9.693A2.621,2.621,0,0,0,8.288,7.08Z" fill="#fbd46d"/>
        </g>
      </g>
      <g id="Group_4598" data-name="Group 4598">
        <path id="Path_6452" data-name="Path 6452" d="M29.1,7.537a3.039,3.039,0,0,0-2.164-.9,2.889,2.889,0,0,0,.3-1.292V2.694A1.831,1.831,0,0,0,25.417.867H23.235A1.831,1.831,0,0,0,21.41,2.694V5.347a2.912,2.912,0,0,0,.3,1.293,3.038,3.038,0,0,0-2.048.794,3.05,3.05,0,0,0-2.053-.794,2.889,2.889,0,0,0,.3-1.293V2.694A1.831,1.831,0,0,0,16.088.867H13.905A1.83,1.83,0,0,0,12.08,2.694V5.348a2.89,2.89,0,0,0,.3,1.293,3.021,3.021,0,0,0-1.324.305,3.073,3.073,0,0,0-.722.488A3.036,3.036,0,0,0,8.282,6.64a2.9,2.9,0,0,0,.3-1.293V1.676A.83.83,0,0,0,7.777.867h-3.2A1.83,1.83,0,0,0,2.75,2.694V5.347a2.9,2.9,0,0,0,.3,1.293A3.062,3.062,0,0,0,0,9.693v5.725a2.311,2.311,0,0,0,1.867,2.265v3.988a.439.439,0,0,0,.879,0V17.725H8.6v10.3a.3.3,0,0,1-.236.234H6.111V19.273a.439.439,0,1,0-.879,0v8.982H2.981a.3.3,0,0,1-.236-.234v-4.36a.439.439,0,0,0-.879,0v4.385a1.184,1.184,0,0,0,1.09,1.087H8.385a1.182,1.182,0,0,0,1.089-1.087V17.683a2.3,2.3,0,0,0,.862-.36,2.254,2.254,0,0,0,.434.233,2.356,2.356,0,0,0,.427.128v3.988a.439.439,0,0,0,.879,0V17.725h5.849v10.3a.3.3,0,0,1-.236.234H15.441V19.273a.439.439,0,1,0-.879,0v8.982H12.311a.3.3,0,0,1-.236-.234v-4.36a.439.439,0,0,0-.879,0v4.385a1.179,1.179,0,0,0,.342.749,1.164,1.164,0,0,0,.748.339h5.429a1.177,1.177,0,0,0,.746-.339,1.165,1.165,0,0,0,.342-.749V17.683a2.313,2.313,0,0,0,.427-.128,2.22,2.22,0,0,0,.434-.233,2.323,2.323,0,0,0,.862.36v3.988a.44.44,0,0,0,.881,0V17.725h5.848v10.3a.29.29,0,0,1-.236.234H24.77V19.273a.439.439,0,1,0-.878,0v8.982H21.64a.293.293,0,0,1-.234-.234v-4.36a.44.44,0,0,0-.881,0v4.385a1.179,1.179,0,0,0,.342.749,1.164,1.164,0,0,0,.748.339h5.43a1.182,1.182,0,0,0,.747-.339,1.167,1.167,0,0,0,.34-.749V17.683A2.3,2.3,0,0,0,30,15.418V9.693a3.041,3.041,0,0,0-.9-2.156ZM3.629,2.694a.952.952,0,0,1,.947-.949H7.707V3.054H3.629V2.879h0Zm.6,4.094a2.035,2.035,0,0,1-.6-1.44V3.932H7.707V5.347a2.037,2.037,0,0,1-3.48,1.44Zm2.34,5.7c.022.077.023.057-.03.1l-.87.79-.882-.8c-.045-.04-.037-.026-.023-.073l.905-3.184Zm3.9,2.927a1.431,1.431,0,0,1-.988,1.359v-6.7a.439.439,0,1,0-.879,0v6.773H2.746V10.073a.439.439,0,1,0-.879,0v6.7a1.43,1.43,0,0,1-.988-1.359V9.693A2.184,2.184,0,0,1,3.053,7.518h.669A2.92,2.92,0,0,0,5.074,8.2l-1.166,4.1a.846.846,0,0,0,0,.478.926.926,0,0,0,.223.384.448.448,0,0,0,.036.038l.99.9a.79.79,0,0,0,.513.2.808.808,0,0,0,.5-.189l1-.907a.91.91,0,0,0,.258-.9L6.26,8.2a2.915,2.915,0,0,0,1.352-.686h.676a2.185,2.185,0,0,1,2.174,2.174Zm2.5-12.724a.952.952,0,0,1,.947-.949h2.183a.949.949,0,0,1,.946.949v.991a2.367,2.367,0,0,1-2.046-.457c-.49-.43-.576-.38-1.058-.106a1.642,1.642,0,0,1-.538.2,1.39,1.39,0,0,1-.434,0V2.694Zm0,1.511a2.21,2.21,0,0,0,.578-.02,2.467,2.467,0,0,0,.815-.3c.027-.015.033-.025.059,0a3.2,3.2,0,0,0,2.624.684v.775a2.038,2.038,0,0,1-4.076,0Zm2.935,8.278c.025.087.028.062-.032.117L15,13.385l-.864-.784c-.068-.062-.056-.036-.033-.118L15,9.327Zm3.141,4.2a1.43,1.43,0,0,1-.67.166H11.637a1.427,1.427,0,0,1-.671-.166,2.293,2.293,0,0,0,.375-1.262V9.693A3.034,3.034,0,0,0,10.9,8.109a2.169,2.169,0,0,1,1.487-.591h.669A2.914,2.914,0,0,0,14.4,8.2l-1.167,4.1a.867.867,0,0,0,0,.478.963.963,0,0,0,.261.422l.988.9a.792.792,0,0,0,.513.2.807.807,0,0,0,.5-.189l1-.907a.885.885,0,0,0,.253-.4.957.957,0,0,0,0-.5L15.589,8.2a2.911,2.911,0,0,0,1.352-.686h.676a2.16,2.16,0,0,1,.943.216,2.2,2.2,0,0,1,.543.375,3.031,3.031,0,0,0-.445,1.583v5.725a2.288,2.288,0,0,0,.376,1.262ZM22.288,2.694a.952.952,0,0,1,.946-.949h2.183a.953.953,0,0,1,.949.949V3.71l-2-.677a1.286,1.286,0,0,0-1.013.066l-1.063.521V2.694Zm0,1.9,1.447-.708a.42.42,0,0,1,.349-.022l2.282.772v.711a2.039,2.039,0,0,1-4.078,0ZM25.2,12.4c.053.191.073.128-.055.244l-.819.742-.772-.7c-.171-.154-.158-.08-.1-.281l.874-3.074Zm3.921,3.019a1.43,1.43,0,0,1-.988,1.359v-6.7a.439.439,0,1,0-.879,0v6.773H21.406V10.073a.44.44,0,0,0-.88,0v6.7a1.427,1.427,0,0,1-.987-1.359V9.693a2.181,2.181,0,0,1,2.174-2.174h.667a2.925,2.925,0,0,0,1.352.686l-1.166,4.1a.86.86,0,0,0,0,.478.968.968,0,0,0,.261.422l.988.9a.792.792,0,0,0,.513.2.8.8,0,0,0,.5-.191l1-.907a.88.88,0,0,0,.253-.4.957.957,0,0,0,.005-.5L24.919,8.2a2.9,2.9,0,0,0,1.352-.686h.676a2.184,2.184,0,0,1,2.174,2.174Z"/>
      </g>
    </g>
  </g>
</svg>
