<svg xmlns="http://www.w3.org/2000/svg" xmlns:xlink="http://www.w3.org/1999/xlink" width="25" height="25" viewBox="0 0 25 25">
  <defs>
    <clipPath id="clip-path">
      <rect id="Rectangle_2297" data-name="Rectangle 2297" width="25" height="25" fill="#ffb302" stroke="#707070" stroke-width="1"/>
    </clipPath>
  </defs>
  <g id="all-req" clip-path="url(#clip-path)">
    <g id="pallet_2_" data-name="pallet (2)">
      <path id="Path_5936" data-name="Path 5936" d="M.732,17.676h.781V.732A.732.732,0,0,1,2.246,0H22.754a.732.732,0,0,1,.732.732V17.676h.781a.732.732,0,0,1,.732.732v5.859a.732.732,0,0,1-.732.732h-2.93a.732.732,0,0,1-.732-.732v-2.2H14.7v2.2a.732.732,0,0,1-.732.732h-2.93a.732.732,0,0,1-.732-.732v-2.2H4.395v2.2A.732.732,0,0,1,3.662,25H.732A.732.732,0,0,1,0,24.268V18.408A.732.732,0,0,1,.732,17.676Zm11.035,0V10.254H9.57v2.2a.732.732,0,0,1-.732.732H5.908a.732.732,0,0,1-.732-.732v-2.2h-2.2v7.422ZM8.105,10.254H6.641v1.465H8.105ZM2.979,8.789h8.789V1.465H9.57v2.2a.732.732,0,0,1-.732.732H5.908a.732.732,0,0,1-.732-.732v-2.2h-2.2ZM8.105,1.465H6.641V2.93H8.105Zm10.254,0H16.895V2.93h1.465Zm1.465,0v2.2a.732.732,0,0,1-.732.732h-2.93a.732.732,0,0,1-.732-.732v-2.2h-2.2V8.789h8.789V1.465Zm-1.465,8.789H16.895v1.465h1.465Zm3.662,0h-2.2v2.2a.732.732,0,0,1-.732.732h-2.93a.732.732,0,0,1-.732-.732v-2.2h-2.2v7.422h8.789Zm1.514,8.887H1.465v1.465h22.07ZM22.07,23.535h1.465V22.07H22.07Zm-10.3,0h1.465V22.07H11.768Zm-8.838,0V22.07H1.465v1.465Z" fill="#ffb302"/>
    </g>
  </g>
</svg>
