<svg xmlns="http://www.w3.org/2000/svg" xmlns:xlink="http://www.w3.org/1999/xlink" width="24" height="24" viewBox="0 0 24 24">
  <defs>
    <clipPath id="clip-path">
      <rect id="Rectangle_2406" data-name="Rectangle 2406" width="24" height="24" transform="translate(1481 1319)" fill="#fff" stroke="#707070" stroke-width="1"/>
    </clipPath>
  </defs>
  <g id="dealers" transform="translate(-1481 -1319)" clip-path="url(#clip-path)">
    <g id="truck" transform="translate(1481 1319)">
      <g id="Group_4536" data-name="Group 4536">
        <path id="Path_6348" data-name="Path 6348" d="M3.679,19.592H2.165a.357.357,0,0,1,0-.714H3.322V17.769a.357.357,0,0,1,.714,0v1.466A.357.357,0,0,1,3.679,19.592Z" fill="#21386b"/>
      </g>
      <g id="Group_4537" data-name="Group 4537">
        <path id="Path_6349" data-name="Path 6349" d="M2.5,13.083H1.848a.357.357,0,0,1,0-.714H2.5a.357.357,0,0,1,0,.714Z" fill="#21386b"/>
      </g>
      <path id="Path_6350" data-name="Path 6350" d="M23.643,14.492a.944.944,0,0,0-.247-.637l-.654-.716-4.807-1.694a.372.372,0,0,1-.372-.372l-1.937-3.04H2.519a.527.527,0,0,0-.527.527v9.352a.332.332,0,0,0,.332.332h20.5l.031-.614a.655.655,0,0,0,.655-.655Z" fill="#80b4fb"/>
      <path id="Path_6351" data-name="Path 6351" d="M23.582,17.865c.007-.016.014-.032.02-.048s.013-.038.018-.058a.653.653,0,0,0,.023-.169v-3.1a.944.944,0,0,0-.247-.637l-.654-.716-1.59-.561,1.167,1.277a.944.944,0,0,1,.247.637v3.1a.654.654,0,0,1-.655.655h1.078A.654.654,0,0,0,23.582,17.865Z" fill="#61a2f9"/>
      <path id="Path_6352" data-name="Path 6352" d="M18.357,8.341a.947.947,0,0,0-.7-.308H15.626v4.734a.372.372,0,0,0,.372.372h6.744Z" fill="#e4f6ff"/>
      <path id="Path_6353" data-name="Path 6353" d="M17.279,8.341l4.384,4.8h1.078l-4.384-4.8a.947.947,0,0,0-.7-.308H16.58a.947.947,0,0,1,.7.308Z" fill="#d3effb"/>
      <path id="Path_6354" data-name="Path 6354" d="M19.607,11.688a.357.357,0,0,0-.5.5l.947.947h1.009Z" fill="#21386b"/>
      <g id="Group_4538" data-name="Group 4538">
        <path id="Path_6355" data-name="Path 6355" d="M19.03,12.621a.357.357,0,0,1-.252-.609l.649-.649a.357.357,0,0,1,.5.5l-.649.649a.356.356,0,0,1-.252.1Z" fill="#26457d"/>
      </g>
      <g id="Group_4539" data-name="Group 4539">
        <path id="Path_6356" data-name="Path 6356" d="M9.969,13.886a1.027,1.027,0,0,1-1.453-.02l-.243-.25a.061.061,0,0,1,0-.087l1.654-1.61a.061.061,0,0,0,0-.088l-1.654-1.61a.061.061,0,0,1,0-.087l.243-.25a1.027,1.027,0,0,1,1.453-.02L11.5,11.352a.737.737,0,0,1,.182.273.72.72,0,0,1-.173.765Z" fill="#f9f6f6"/>
      </g>
      <g id="Group_4540" data-name="Group 4540">
        <path id="Path_6357" data-name="Path 6357" d="M23.643,16.893H1.991a.357.357,0,0,1,0-.714H23.643a.357.357,0,0,1,0,.714Z" fill="#5986cb"/>
      </g>
      <g id="Group_4541" data-name="Group 4541">
        <path id="Path_6358" data-name="Path 6358" d="M23.643,15.615h-.65a.357.357,0,0,1,0-.714h.65a.357.357,0,0,1,0,.714Z" fill="#da4a54"/>
      </g>
      <circle id="Ellipse_102" data-name="Ellipse 102" cx="2.455" cy="2.455" r="2.455" transform="translate(16.966 15.93)" fill="#26457d"/>
      <path id="Path_6359" data-name="Path 6359" d="M19.421,15.929a2.467,2.467,0,0,0-.408.034,2.454,2.454,0,0,1,0,4.841,2.455,2.455,0,1,0,.408-4.875Z" fill="#21386b"/>
      <circle id="Ellipse_103" data-name="Ellipse 103" cx="0.816" cy="0.816" r="0.816" transform="translate(18.605 17.569)" fill="#f9f6f6"/>
      <path id="Path_6360" data-name="Path 6360" d="M19.421,17.568a.812.812,0,0,0-.333.072.815.815,0,0,1,0,1.488.815.815,0,1,0,.333-1.56Z" fill="#dddaec"/>
      <circle id="Ellipse_104" data-name="Ellipse 104" cx="2.455" cy="2.455" r="2.455" transform="translate(4.738 15.93)" fill="#26457d"/>
      <path id="Path_6361" data-name="Path 6361" d="M7.193,15.929a2.467,2.467,0,0,0-.408.034,2.454,2.454,0,0,1,0,4.841,2.455,2.455,0,1,0,.408-4.875Z" fill="#21386b"/>
      <circle id="Ellipse_105" data-name="Ellipse 105" cx="0.816" cy="0.816" r="0.816" transform="translate(6.377 17.569)" fill="#f9f6f6"/>
      <path id="Path_6362" data-name="Path 6362" d="M7.193,17.568a.812.812,0,0,0-.333.072.815.815,0,0,1,0,1.488.815.815,0,1,0,.333-1.56Z" fill="#dddaec"/>
      <path id="Path_6363" data-name="Path 6363" d="M16.906,10.091a.6.6,0,0,0-.593-.517h-.687v3.193a.372.372,0,0,0,.372.372h1.326Z" fill="#26457d"/>
      <g id="Group_4542" data-name="Group 4542">
        <path id="Path_6364" data-name="Path 6364" d="M13.307,18.6a.357.357,0,0,1-.357-.357V8.033a.357.357,0,0,1,.714,0V18.245A.357.357,0,0,1,13.307,18.6Z" fill="#5986cb"/>
      </g>
      <circle id="Ellipse_106" data-name="Ellipse 106" cx="3.906" cy="3.906" r="3.906" transform="translate(0 3.161)" fill="#ffd064"/>
      <path id="Path_6365" data-name="Path 6365" d="M3.906,3.161a3.939,3.939,0,0,0-.54.038,3.905,3.905,0,0,1,0,7.736,3.906,3.906,0,1,0,.54-7.774Z" fill="#ffc250"/>
      <path id="Path_6366" data-name="Path 6366" d="M4.382,6.711,4.241,6.66V5.673a1.338,1.338,0,0,1,.338.1.357.357,0,0,0,.316-.64,2.051,2.051,0,0,0-.654-.174V4.846a.357.357,0,0,0-.714,0v.168a1.107,1.107,0,0,0-.792.877.989.989,0,0,0,.328.974,2.337,2.337,0,0,0,.463.274V8.406a.99.99,0,0,1-.361-.167.357.357,0,1,0-.391.6,1.587,1.587,0,0,0,.752.29v.162a.357.357,0,0,0,.714,0v-.2A1.332,1.332,0,0,0,5.18,8.04,1.174,1.174,0,0,0,4.382,6.711Zm-.945-.688a.468.468,0,0,1,.09-.2v.5A.283.283,0,0,1,3.437,6.023Zm1.039,1.9a.621.621,0,0,1-.236.388V7.427A.452.452,0,0,1,4.476,7.921Z" fill="#f9f6f6"/>
    </g>
  </g>
</svg>
