<svg xmlns="http://www.w3.org/2000/svg" xmlns:xlink="http://www.w3.org/1999/xlink" width="16" height="16" viewBox="0 0 16 16">
  <defs>
    <clipPath id="clip-path">
      <rect id="Rectangle_2409" data-name="Rectangle 2409" width="16" height="16" transform="translate(1489 1420)" fill="#fff" stroke="#707070" stroke-width="1"/>
    </clipPath>
  </defs>
  <g id="dealer1" transform="translate(-1489 -1420)" clip-path="url(#clip-path)">
    <g id="courier_2_" data-name="courier (2)" transform="translate(1489 1420)">
      <path id="Path_6276" data-name="Path 6276" d="M11.25,11.75v3.781a.469.469,0,0,1-.469.469H.469A.469.469,0,0,1,0,15.531V11.75A3.285,3.285,0,0,1,3.257,8.469H7.969A3.285,3.285,0,0,1,11.25,11.75Z" fill="#1c9ae8"/>
      <path id="Path_6277" data-name="Path 6277" d="M8.969,16H5.625V8.469H7.969a3.273,3.273,0,0,1,2.443,1.094H8.969a.313.313,0,0,0-.312.312v5.656a.313.313,0,0,0,.312.312Z" fill="#2275c7"/>
      <path id="Path_6278" data-name="Path 6278" d="M16,9.875v5.656a.469.469,0,0,1-.469.469H8.969a.469.469,0,0,1-.469-.469V9.875a.469.469,0,0,1,.469-.469h1.875l1.406.312,1.406-.312h1.875A.469.469,0,0,1,16,9.875Z" fill="#c4a27a"/>
      <path id="Path_6279" data-name="Path 6279" d="M16,9.875v5.656a.469.469,0,0,1-.469.469H12.25V9.719l1.406-.312h1.875A.469.469,0,0,1,16,9.875Z" fill="#9b7c5d"/>
      <path id="Path_6280" data-name="Path 6280" d="M13.656,9.406V11.75a.469.469,0,0,1-.469.469H11.312a.469.469,0,0,1-.469-.469V9.406Z" fill="#9b7c5d"/>
      <path id="Path_6281" data-name="Path 6281" d="M13.656,9.406V11.75a.469.469,0,0,1-.469.469H12.25V9.406Z" fill="#7a6047"/>
      <path id="Path_6282" data-name="Path 6282" d="M4.219,7.8V8.938a1.406,1.406,0,0,0,2.812,0V7.813Z" fill="#fbcdbe"/>
      <path id="Path_6283" data-name="Path 6283" d="M7.031,7.813V8.938a1.406,1.406,0,0,1-1.406,1.406V7.809Z" fill="#fdbbab"/>
      <path id="Path_6284" data-name="Path 6284" d="M2.813,12.688V16H1.875V12.688a.469.469,0,1,1,.937,0Z" fill="#2275c7"/>
      <path id="Path_6285" data-name="Path 6285" d="M4.219,13.156H7.031a.469.469,0,0,0,0-.937H4.219a.469.469,0,0,0,0,.937Z" fill="#2275c7"/>
      <path id="Path_6286" data-name="Path 6286" d="M7.5,12.688a.469.469,0,0,1-.469.469H5.625v-.937H7.031A.469.469,0,0,1,7.5,12.688Z" fill="#0757a1"/>
      <path id="Path_6287" data-name="Path 6287" d="M7.031,14.094H4.219a.469.469,0,1,0,0,.937H7.031a.469.469,0,1,0,0-.937Z" fill="#2275c7"/>
      <path id="Path_6288" data-name="Path 6288" d="M7.5,14.563a.469.469,0,0,1-.469.469H5.625v-.937H7.031A.469.469,0,0,1,7.5,14.563Z" fill="#0757a1"/>
      <path id="Path_6289" data-name="Path 6289" d="M9.8,5.2a.876.876,0,0,0-.874-.876H8.906V3.317a3.281,3.281,0,1,0-6.562-.036V4.33H2.28a.876.876,0,0,0-.874.876h0a.876.876,0,0,0,.876.876h.185a3.282,3.282,0,0,0,6.317-.007h.145A.876.876,0,0,0,9.8,5.2Z" fill="#fddbcc"/>
      <path id="Path_6290" data-name="Path 6290" d="M9.8,5.2a.875.875,0,0,1-.876.876H8.784A3.283,3.283,0,0,1,5.625,8.469V0h.019A3.3,3.3,0,0,1,8.906,3.317V4.324h.025A.876.876,0,0,1,9.8,5.2Z" fill="#fbcdbe"/>
      <path id="Path_6291" data-name="Path 6291" d="M8.906,3.317V4.324c-1.4-2.2-4.487,1.092-6.568.006h.006V3.281a3.281,3.281,0,1,1,6.562.036Z" fill="#5b5555"/>
      <path id="Path_6292" data-name="Path 6292" d="M8.906,3.317V4.324C8.159,3.145,6.928,3.54,5.625,4V0h.019A3.3,3.3,0,0,1,8.906,3.317Z" fill="#463f3f"/>
    </g>
  </g>
</svg>
