<svg xmlns="http://www.w3.org/2000/svg" xmlns:xlink="http://www.w3.org/1999/xlink" width="32" height="29" viewBox="0 0 32 29">
  <defs>
    <clipPath id="clip-path">
      <rect id="Rectangle_2273" data-name="Rectangle 2273" width="32" height="29" rx="3" transform="translate(74 5)" fill="#fff"/>
    </clipPath>
  </defs>
  <g id="flag" transform="translate(-74 -5)" clip-path="url(#clip-path)">
    <g id="saudi-arabia" transform="translate(74 3.5)">
      <path id="Path_5822" data-name="Path 5822" d="M29.6,26.483H2.4a2.4,2.4,0,0,1-2.4-2.4V7.914a2.4,2.4,0,0,1,2.4-2.4H29.6a2.4,2.4,0,0,1,2.4,2.4V24.086A2.4,2.4,0,0,1,29.6,26.483Z" fill="#73af00"/>
      <g id="Group_4346" data-name="Group 4346">
        <path id="Path_5823" data-name="Path 5823" d="M6.621,12.642c.054.349.265.458.448.444a.45.45,0,0,0,.405-.423v-1.2a.109.109,0,1,1,.217,0v1.2a.435.435,0,0,0,.6.4l.109-.043c.01,1-.051,1.887-.052,1.9a.217.217,0,0,0,.2.232h.016a.218.218,0,0,0,.217-.2c.005-.071.072-1.037.052-2.107l.066-.026a.218.218,0,0,1,.178.007.621.621,0,0,0,.717-.116l.039-.039a.649.649,0,0,0,.158-.668L9.8,11.457a.218.218,0,0,0,.161-.4l-.435-.217a.217.217,0,0,0-.3.263l.35,1.05a.217.217,0,0,1-.052.223l-.039.039a.187.187,0,0,1-.215.035.65.65,0,0,0-.452-.045,7.5,7.5,0,0,0-.266-1.874.218.218,0,0,0-.413.138,7.477,7.477,0,0,1,.249,1.9l-.26.1v-1.2a.544.544,0,0,0-1.087,0V12.52l-.222-1.1a.217.217,0,1,0-.426.086Z" fill="#f5f5f5"/>
        <path id="Path_5824" data-name="Path 5824" d="M7.04,10.815a.217.217,0,0,0,.217-.217V10.38a.217.217,0,1,0-.435,0V10.6A.217.217,0,0,0,7.04,10.815Z" fill="#f5f5f5"/>
        <path id="Path_5825" data-name="Path 5825" d="M9.215,10.6h.217a.217.217,0,1,0,0-.435H9.215a.217.217,0,1,0,0,.435Z" fill="#f5f5f5"/>
        <path id="Path_5826" data-name="Path 5826" d="M7.8,13.455l-1.087.653a.217.217,0,1,0,.224.373l1.087-.653a.217.217,0,1,0-.224-.373Z" fill="#f5f5f5"/>
        <path id="Path_5827" data-name="Path 5827" d="M10.73,13.84l.005,0a.5.5,0,0,0,.1.2.427.427,0,0,0,.371.144.6.6,0,0,0,.452-.238.4.4,0,0,0,.046.027.412.412,0,0,0,.383-.012.826.826,0,0,0,.389-.766.222.222,0,0,0-.226-.206.218.218,0,0,0-.208.226s0,.261-.153.357a.53.53,0,0,1-.068-.183.218.218,0,0,0-.432.036c0,.032-.007.311-.223.334a.531.531,0,0,1,0-.285.217.217,0,0,0-.334-.23l-.121.083c-.058-1.261-.19-2.731-.192-2.75a.217.217,0,1,0-.433.04c0,.02.156,1.721.2,3.019l-.033.032a.561.561,0,0,0-.476-.374.794.794,0,0,0-.766.485.514.514,0,0,0,.166.649.725.725,0,0,0,.649.03,1.819,1.819,0,0,1-.354.67.913.913,0,0,1-.695.354.572.572,0,0,1-.422-.18,1.242,1.242,0,0,1-.23-.778.217.217,0,0,0-.205-.229.213.213,0,0,0-.229.205,1.668,1.668,0,0,0,.342,1.093,1,1,0,0,0,.728.323h.044a1.325,1.325,0,0,0,1-.506,2.25,2.25,0,0,0,.5-1.115,2.465,2.465,0,0,1-1.043,1.953,1.086,1.086,0,0,1-1.089.08.933.933,0,0,1-.478-.92.217.217,0,0,0-.432-.054,1.366,1.366,0,0,0,.718,1.364,1.478,1.478,0,0,0,.658.157,1.609,1.609,0,0,0,.853-.257,2.892,2.892,0,0,0,1.249-2.324C10.737,14.154,10.735,14,10.73,13.84Zm-1.311.224c-.039-.026-.009-.108,0-.124a.37.37,0,0,1,.3-.214h.017c.028,0,.1.01.133.174,0,.017.006.035.009.054C9.637,14.1,9.475,14.1,9.419,14.064Z" fill="#f5f5f5"/>
        <path id="Path_5828" data-name="Path 5828" d="M7.15,16.065a.218.218,0,0,0-.3.077.447.447,0,0,1-.037.052l-.007-.018a1.463,1.463,0,0,1,.006-.738.217.217,0,0,0-.42-.112,1.873,1.873,0,0,0,.006,1c.1.266.253.333.364.342h.029a.571.571,0,0,0,.433-.311A.217.217,0,0,0,7.15,16.065Z" fill="#f5f5f5"/>
        <path id="Path_5829" data-name="Path 5829" d="M11.163,12.119a.216.216,0,0,0,.134-.047l1.1-.861a.21.21,0,0,0,.036-.042.545.545,0,1,0-.625-.048l-.776.609a.217.217,0,0,0,.135.388Zm.988-1.522a.109.109,0,1,1-.109.109A.109.109,0,0,1,12.151,10.6Z" fill="#f5f5f5"/>
        <path id="Path_5830" data-name="Path 5830" d="M11.893,11.913a.217.217,0,0,0-.275.137.665.665,0,0,0,.085.641.439.439,0,0,0,.325.124.955.955,0,0,0,.3-.055.217.217,0,1,0-.138-.413.754.754,0,0,1-.178.038.416.416,0,0,1,.018-.2A.217.217,0,0,0,11.893,11.913Z" fill="#f5f5f5"/>
        <path id="Path_5831" data-name="Path 5831" d="M14.383,11.014a.218.218,0,0,0,.27-.148l.127-.435a.218.218,0,1,0-.418-.122l-.127.435A.217.217,0,0,0,14.383,11.014Z" fill="#f5f5f5"/>
        <path id="Path_5832" data-name="Path 5832" d="M13.115,10.989a.217.217,0,1,0,.22-.375c-.044-.026-.038-.1-.036-.112a.171.171,0,0,1,.1-.145.218.218,0,0,0-.129-.415.6.6,0,0,0-.4.511A.536.536,0,0,0,13.115,10.989Z" fill="#f5f5f5"/>
        <path id="Path_5833" data-name="Path 5833" d="M11.39,14.512a.217.217,0,0,0-.041.431.409.409,0,0,1,.041.221.217.217,0,0,0,.435,0C11.825,14.519,11.407,14.512,11.39,14.512Z" fill="#f5f5f5"/>
        <path id="Path_5834" data-name="Path 5834" d="M15.079,13.611a.5.5,0,0,0,.082.007.743.743,0,0,0,.514-.257.217.217,0,1,0-.307-.307c-.13.13-.2.133-.218.129-.042-.006-.079-.06-.087-.075a.217.217,0,0,0-.388.2A.588.588,0,0,0,15.079,13.611Z" fill="#f5f5f5"/>
        <path id="Path_5835" data-name="Path 5835" d="M18.776,12.083l0-.01a.217.217,0,0,0-.412.139.487.487,0,0,0,.354.339.364.364,0,0,0,.048,0,.532.532,0,0,0,.421-.29.217.217,0,0,0-.362-.241A.657.657,0,0,1,18.776,12.083Z" fill="#f5f5f5"/>
        <path id="Path_5836" data-name="Path 5836" d="M18.349,16.034c0-.927-.041-1.8-.1-2.56a11.013,11.013,0,0,1,.764,1.549.218.218,0,0,0,.2.141.22.22,0,0,0,.076-.014.218.218,0,0,0,.127-.28,14.4,14.4,0,0,0-1.258-2.384c-.119-1.172-.252-1.915-.254-1.928a.217.217,0,0,0-.428.078c0,.009.07.392.152,1.037-.167-.248-.322-.472-.453-.656l.011,0a.217.217,0,1,0,.138-.412l-.653-.217a.216.216,0,0,0-.245.079.219.219,0,0,0-.032.067.474.474,0,0,0-.454-.109.37.37,0,0,0-.208.387,1.965,1.965,0,0,0,.15.616c.128.363.208.63.073.757a.238.238,0,0,1-.223.078c-.134-.034-.267-.213-.355-.478a.2.2,0,0,0-.017-.03,3.7,3.7,0,0,0-.066-1.2.217.217,0,1,0-.427.085,2.07,2.07,0,0,1-.114,1.55.39.39,0,0,1-.325.147.125.125,0,0,1-.1-.048,2.1,2.1,0,0,1-.116-1.226A.218.218,0,0,0,14,10.814c-.374,0-.516.426-.641.8-.055.165-.157.472-.229.5-.132,0-.217-.387-.217-.653a.218.218,0,0,0-.217-.217h0a.217.217,0,0,0-.217.217c0,.5.171,1.087.653,1.087.359,0,.5-.391.625-.754a1.363,1.363,0,0,0,.247.773.558.558,0,0,0,.433.2.827.827,0,0,0,.662-.307,1,1,0,0,0,.081-.12.811.811,0,0,0,.456.342.627.627,0,0,0,.154.019.69.69,0,0,0,.474-.2.638.638,0,0,0,.073-.088.587.587,0,0,0,.161.024.88.88,0,0,0,.451-.139.217.217,0,0,0-.234-.367.462.462,0,0,1-.246.065,2.244,2.244,0,0,0-.165-.715,3.028,3.028,0,0,1-.112-.364c.018.015.035.031.051.046a.217.217,0,0,0,.307,0,.209.209,0,0,0,.032-.048c.225.311.689.963,1.166,1.715.091.925.171,2.1.171,3.4a.218.218,0,0,0,.435,0Z" fill="#f5f5f5"/>
        <path id="Path_5837" data-name="Path 5837" d="M18.567,11.25a.218.218,0,0,0,.435,0,2.218,2.218,0,0,0-.24-.75.217.217,0,0,0-.389.195A1.931,1.931,0,0,1,18.567,11.25Z" fill="#f5f5f5"/>
        <path id="Path_5838" data-name="Path 5838" d="M17.577,16.058a.217.217,0,0,0-.292.1.623.623,0,0,1-.09.129,1.215,1.215,0,0,1,.057-.4.218.218,0,0,0-.362-.218l-.435.435a.217.217,0,0,0,.308.308l.011-.011a.45.45,0,0,0,.116.229.4.4,0,0,0,.283.125.387.387,0,0,0,.06,0,.708.708,0,0,0,.441-.394A.217.217,0,0,0,17.577,16.058Z" fill="#f5f5f5"/>
        <path id="Path_5839" data-name="Path 5839" d="M17.493,14.308H15.96q.02-.081.042-.155c.611-.127.975-.324,1.081-.588A.486.486,0,0,0,17,13.077a.539.539,0,0,0-.55-.234c-.309.063-.584.4-.782.929a2.5,2.5,0,0,0-1.256.543,3.37,3.37,0,0,0-.451-1.446.217.217,0,1,0-.362.241,3.14,3.14,0,0,1,.4,1.619,1.721,1.721,0,0,1-1.3,1.74c-.244,0-.351-.29-.4-.536a2.5,2.5,0,0,0,1.044-1.151A1.73,1.73,0,0,0,13.2,13.6l-.016-.038.014.013a.217.217,0,0,0,.307-.307c-.127-.127-.374-.327-.6-.233a.37.37,0,0,0-.208.387.925.925,0,0,0,.1.35,1.315,1.315,0,0,1,.123.9,1.84,1.84,0,0,1-.712.785.214.214,0,0,0-.165-.08h0a.217.217,0,0,0-.217.217c0,.039,0,.081,0,.124a11.437,11.437,0,0,1-1.4.766.217.217,0,0,0,.09.415.215.215,0,0,0,.09-.02,12.528,12.528,0,0,0,1.3-.7.846.846,0,0,0,.786.715A1.848,1.848,0,0,0,14.15,15.84a1.266,1.266,0,0,0,.145.208,2.451,2.451,0,0,0,1.662.638.217.217,0,0,0,.016-.434.465.465,0,0,1-.271-.132.373.373,0,0,1-.071-.286c.022-.268.887-.468,1.649-.48a.218.218,0,0,0,.2-.145L17.7,14.6a.218.218,0,0,0-.2-.29Zm-.955-1.039.017,0c.021,0,.054.01.1.069.008.011.035.049.028.065-.025.062-.175.163-.488.255C16.33,13.389,16.464,13.284,16.538,13.269Zm-1.313,2.859a1.331,1.331,0,0,1-.6-.366A.924.924,0,0,1,14.43,15a.639.639,0,0,1,.045-.092c.306-.028,1.124.093,1.181.327a.73.73,0,0,0-.46.567A.917.917,0,0,0,15.225,16.128Z" fill="#f5f5f5"/>
        <path id="Path_5840" data-name="Path 5840" d="M19.861,11.181l-.218-.653a.218.218,0,0,0-.423.09c.15,1.5.434,4.427.434,4.763,0,.3-.536.895-1.4,1.328a.217.217,0,0,0,.195.389c.791-.4,1.643-1.1,1.643-1.717,0-.321-.222-2.633-.35-3.932A.218.218,0,0,0,19.861,11.181Z" fill="#f5f5f5"/>
        <path id="Path_5841" data-name="Path 5841" d="M21.675,13.143a.218.218,0,0,0,.365-.207,1.1,1.1,0,0,1-.031-.422.221.221,0,0,0,.226-.186.218.218,0,0,0-.184-.246.393.393,0,0,0-.358.121.5.5,0,0,0-.11.233l-.252-.252a.217.217,0,0,0-.308.307Z" fill="#f5f5f5"/>
        <path id="Path_5842" data-name="Path 5842" d="M22.164,13.37l-.816.585a.217.217,0,1,0,.253.353l.816-.585a.217.217,0,1,0-.253-.353Z" fill="#f5f5f5"/>
        <path id="Path_5843" data-name="Path 5843" d="M22.092,14.188a.217.217,0,0,0,.019.288.6.6,0,0,1,.044.313.217.217,0,0,0,.21.225h.008a.218.218,0,0,0,.217-.21c.016-.444-.129-.606-.193-.655A.217.217,0,0,0,22.092,14.188Z" fill="#f5f5f5"/>
        <path id="Path_5844" data-name="Path 5844" d="M23.99,15.79a.217.217,0,0,0,.218-.217c0-.321-.017-.679-.043-1.052a7.936,7.936,0,0,1,.51.947.217.217,0,0,0,.2.132.214.214,0,0,0,.086-.018.217.217,0,0,0,.114-.285,11.967,11.967,0,0,0-1-1.716c-.085-.8-.2-1.58-.283-2.142a.21.21,0,0,0,.136-.034.215.215,0,0,0,.1-.2.212.212,0,0,0,.024.063.791.791,0,0,1,.079.533.217.217,0,0,0,.169.257.229.229,0,0,0,.044,0,.218.218,0,0,0,.213-.174,1.233,1.233,0,0,0-.138-.854.218.218,0,0,0-.3-.067.215.215,0,0,0-.1.2A.212.212,0,0,0,24,11.1l-.367-.571a.218.218,0,0,0-.4.155c0,.017.169.972.317,2.122-.167-.235-.333-.466-.5-.685-.026-.329-.053-.633-.075-.885a.22.22,0,0,0,.035-.014.218.218,0,0,0,.1-.292l-.218-.435a.217.217,0,0,0-.411.119c.026.26.053.547.079.849-.138-.181-.265-.347-.374-.488a.218.218,0,0,0-.045-.36l-.435-.217a.218.218,0,0,0-.267.331c.012.015.547.686,1.188,1.552a17.485,17.485,0,0,1,.081,3.245c-.019.057-.052.125-.084.127-.131.018-.445-.276-.6-.591a.3.3,0,0,0-.291-.2c-.234.014-.325.272-.491.738a3.062,3.062,0,0,1-.432.92,2.47,2.47,0,0,1-.27-.856.216.216,0,0,0,.42-.073c0-.324-.227-2.794-.354-4.148a.217.217,0,0,0,.125-.27l-.218-.653a.218.218,0,0,0-.423.089c.148,1.552.425,4.548.434,4.962l0-.011a.217.217,0,1,0-.431.062c.063.445.226,1.209.6,1.333a.363.363,0,0,0,.116.019.427.427,0,0,0,.306-.142,3.136,3.136,0,0,0,.539-1.087c.032-.09.07-.2.105-.288.2.291.548.654.9.626a.534.534,0,0,0,.466-.424,12.249,12.249,0,0,0-.008-2.715c.183.257.367.52.542.78.068.651.116,1.3.116,1.84A.217.217,0,0,0,23.99,15.79Z" fill="#f5f5f5"/>
        <path id="Path_5845" data-name="Path 5845" d="M25.641,14.646c-.154-1.148-.369-2.477-.5-3.293a.214.214,0,0,0,.182-.039.217.217,0,0,0,.041-.3l-.394-.517a.218.218,0,0,0-.387.169c0,.022.392,2.255.632,4.042a2.038,2.038,0,0,1-.358,1.632.962.962,0,0,1-.8.3.217.217,0,1,0-.027.434c.037,0,.073,0,.109,0a1.373,1.373,0,0,0,1.034-.438A2.428,2.428,0,0,0,25.641,14.646Z" fill="#f5f5f5"/>
        <path id="Path_5846" data-name="Path 5846" d="M23.248,16.079a.22.22,0,0,0,.011.306.091.091,0,0,1,.026.045.1.1,0,0,1-.033.049.217.217,0,1,0,.308.308.493.493,0,0,0,.16-.371.518.518,0,0,0-.171-.354A.216.216,0,0,0,23.248,16.079Z" fill="#f5f5f5"/>
        <path id="Path_5847" data-name="Path 5847" d="M22.481,20.849H20.959v-.218a.218.218,0,1,0-.435,0v.218H9a3.036,3.036,0,0,0,1.957.653h9.569v.435a.217.217,0,0,0,.218.218h1.74a.652.652,0,1,0,0-1.3Zm0,.87H20.959V21.5H22.7l-.039-.117a.211.211,0,0,1,.039.117A.218.218,0,0,1,22.481,21.719Z" fill="#f5f5f5"/>
      </g>
    </g>
  </g>
</svg>
