<svg xmlns="http://www.w3.org/2000/svg" xmlns:xlink="http://www.w3.org/1999/xlink" width="1014" height="974" viewBox="0 0 1014 974">
  <defs>
    <clipPath id="clip-path">
      <rect id="Rectangle_2302" data-name="Rectangle 2302" width="1014" height="974" transform="translate(60 229)" fill="none" stroke="#707070" stroke-width="1"/>
    </clipPath>
  </defs>
  <g id="logooo" transform="translate(-60 -229)" clip-path="url(#clip-path)">
    <g id="Group_13953" data-name="Group 13953" transform="translate(265.93 245.118)">
      <g id="Vector_Smart_Object" data-name="Vector Smart Object" transform="translate(9.92 627.132)">
        <g id="Group_13951" data-name="Group 13951" transform="translate(0 0)">
          <path id="Path_10223" data-name="Path 10223" d="M20.2,386.036l208.793,41.03c.814-4.195.863-4.342-2.508-5.476-18.642-6.27-37.183-12.887-56-18.578-25.606-7.744-51.594-14.248-77.125-22.218C60.293,370.469,38.564,348.965,31.349,314.3a26.441,26.441,0,0,1-.029-4.444c64.225,26.459,127.414,53.9,191.208,79.845l1.37-2.391c-2.012-1.527-3.858-3.364-6.06-4.535-39.944-21.231-79.952-42.336-121.713-59.892-14.465-6.081-28.523-12.97-39.912-24.1-14.139-13.821-22.863-30.417-25.051-50.224-.209-1.9-.538-3.785-.662-5.686-.113-1.734-.024-3.481-.024-6.136,2.336,1.256,4.275,2.095,6,3.254q72.718,48.959,145.4,97.972c28.9,19.462,57.957,38.688,86.685,58.4,10.867,7.455,22.909,10.478,35.577,12.163,10.51,1.4,21.089,2.415,31.514,4.286,10.463,1.877,13.247,5.766,13.464,17.8,1.795-1.827,3.257-2.818,4.042-4.193,6.971-12.235,6.249-28.426-3.224-37.683-9.352-9.138-7.049-21.59,4.886-26.9a101.606,101.606,0,0,1,28.493-7.592c11.9-1.477,24.051-.775,36.071-1.432a22.583,22.583,0,0,0,10.213-2.891q68.581-41.992,136.945-84.34c13.138-8.11,26.232-16.291,39.362-24.415.976-.6,2.077-1.006,4.364-2.093-.531,6.2-.52,11.511-1.5,16.628-6.12,31.886-25.751,52.822-54.82,65.355-43.806,18.886-86.46,40.063-128.318,62.88-1.622.884-2.65,2.858-3.956,4.325l1.592,2.084L610.213,311.88c-1.718,6.895-2.607,12.8-4.648,18.268-10.985,29.459-33.354,46.121-62.69,54.674-29.206,8.515-58.474,16.82-87.636,25.481-11.993,3.561-23.817,7.705-35.625,11.844-1.97.691-3.471,2.716-5.189,4.125l1.206,2.514,204.147-40.11c-2.187,8.84-6.419,16.074-11.4,22.8-13.938,18.833-32.908,29.857-55.872,33.278-13.565,2.022-27.408,2.139-41.111,3.3-18.209,1.54-36.416,3.12-54.6,4.951-16.444,1.657-32.862,3.614-49.266,5.635a5.876,5.876,0,0,0-4.03,2.807c-11.008,24.974-25.989,47.228-46.876,64.872-9.446,7.98-20.538,14.042-31.062,20.695-1.348.853-4.038.6-5.654-.135-15.216-6.915-28.076-17.159-39.75-28.933-16.577-16.717-29.032-36.167-38.233-57.8a7.24,7.24,0,0,0-4.968-3.545c-24.176-2.98-48.35-6.046-72.594-8.376-18.034-1.735-36.159-2.618-54.261-3.549-21.5-1.1-42.075-4.832-60.054-17.81C36.061,416.765,26.736,403.4,20.2,386.036Zm291.453,85.978c0,9.139-.107,17.5.025,25.852.2,12.69-2.538,11.417,11.7,11.673,4.36.08,5.728-1.5,5.618-5.8-.268-10.406-.087-20.823-.087-31.72a54.548,54.548,0,0,1,6.723.044c5.124.69,7.154-1.487,6.582-6.479a17.472,17.472,0,0,1-.009-3.137c.26-3.814-1.5-5.292-5.3-5.251-11.178.125-22.36-.009-33.538.107-1.421.014-3.976.771-4.059,1.429a36.676,36.676,0,0,0-.132,11.249c.2,1.029,3.963,1.588,6.16,1.969A40.336,40.336,0,0,0,311.653,472.013Z" transform="translate(-20.2 -236.736)" fill="#008000"/>
          <path id="Path_10224" data-name="Path 10224" d="M295.3,368.18c-9.258-2.21-11.364-3.754-15.3-11.065C286.686,358.629,291.375,362.132,295.3,368.18Z" transform="translate(6.342 -224.437)" fill="#008000"/>
          <path id="Path_10225" data-name="Path 10225" d="M285.829,451.578a40.367,40.367,0,0,1-6.312-.066c-2.2-.382-5.964-.94-6.16-1.969a36.674,36.674,0,0,1,.133-11.25c.083-.658,2.638-1.415,4.058-1.429,11.178-.117,22.36.018,33.538-.107,3.8-.042,5.558,1.437,5.3,5.25a17.479,17.479,0,0,0,.01,3.137c.572,4.992-1.457,7.17-6.582,6.48a54.445,54.445,0,0,0-6.723-.044c0,10.9-.181,21.314.087,31.72.11,4.307-1.258,5.884-5.618,5.8-14.241-.257-11.5,1.016-11.7-11.673C285.722,469.076,285.829,460.717,285.829,451.578Z" transform="translate(5.624 -216.301)" fill="none"/>
        </g>
      </g>
      <g id="Vector_Smart_Object-2" data-name="Vector Smart Object">
        <g id="Group_13952" data-name="Group 13952">
          <path id="Path_10226" data-name="Path 10226" d="M633.1,1156.2c-17.064-2.076-34.237-3.52-51.172-6.365-32.578-5.472-63.207-16.84-92.235-32.492a36.451,36.451,0,0,1-5.485-3.879c-.372-.3-.19-1.278-.447-3.551,8.03,3.615,15.221,7.15,22.636,10.141,30.831,12.436,62.358,19.606,95.953,13.655,11.8-2.087,21.261-7.229,28.881-16.107,4.025-4.692,8.474-6.56,13.189-1.541,21.692,23.1,49.305,21.678,76.969,17.828,16.842-2.346,33.355-7.05,50.625-9.547-9.411,4.067-18.649,8.612-28.269,12.111a293.743,293.743,0,0,1-88.187,17.83c-5.991.26-11.95,1.259-17.923,1.918Z" transform="translate(-336.114 -416.649)" fill="#008000"/>
          <path id="Path_10227" data-name="Path 10227" d="M659.535,480.911c11.162,23.249,21.463,44.725,31.779,66.2,19.461,40.5,38.42,81.244,58.514,121.427,29.877,59.748,60.5,119.127,90.911,178.606,18.606,36.383,37.18,72.786,56.222,108.945,13.238,25.136,27.647,49.665,40.749,74.871,7.529,14.479,13.6,29.72,20.117,44.71,2.746,6.317-.243,9.292-6.647,9.344-10.957.091-21.937.495-32.863-.1-8.669-.472-15.255,2.388-20.987,8.623-4.841,5.266-10.5,9.8-15.223,15.157-19.447,22.066-46.215,31.5-72.359,42.028-.852.343-2.1-.287-2.272-.316,6.354-6.69,12.93-13.635,19.531-20.561,21.592-22.658,24.276-49.278,17.738-78.5-3.667-16.388-7.422-33.253-7.261-49.869.191-19.454-6.635-35.58-15.1-52.1q-77.555-151.387-154.6-303.031c-2.665-5.226-5.615-10.309-9.308-17.064-2.647,3.872-4.472,6.005-5.713,8.436-28.506,55.812-56.7,111.782-85.474,167.454-25.661,49.649-51.832,99.04-78.035,148.411-7.728,14.561-11.433,29.583-12.347,46.208a423.092,423.092,0,0,1-8.633,65.374c-8.1,37.733,4.068,67.049,33.32,90.647a14.426,14.426,0,0,1,4.687,5.772c-23-8.725-46.97-15.121-65.211-33.172-10.955-10.84-21.461-22.658-34.144-31.082-11.472-7.62-25.627-11.228-39.915-17.152-1.765-17.209,7.356-33.913,16.028-50.875Q458.405,881.882,533.528,734.34c26.058-51.133,52.347-102.153,77.885-153.544,15.332-30.855,29.416-62.325,44.1-93.5C656.231,485.766,657.315,484.4,659.535,480.911Z" transform="translate(-348.064 -480.911)" fill="#008000"/>
          <path id="Path_10228" data-name="Path 10228" d="M542,1005.586c32.377,5.519,46.3-21.691,65.183-39.749,27.146-25.959,52.828-53.435,79.2-80.2,1.794-1.819,4.132-4.3,6.288-4.372,12.585-.416,25.191-.206,38.21-.206-7.084,13.37-13.151,24.823-20.84,39.334-1.1-8.834-1.773-14.318-2.914-23.512-39.863,40.739-77.533,79.235-117.446,120.026,7.082.68,10.307,1.254,13.533,1.258q55.542.058,111.085-.036c23.005-.022,32.31-7.63,38.265-30.026,2.954,13.093,5.907,26.188,9.164,40.625l-18.182,22.181c-9.248-9.512-21.413-11.316-34.6-11.206-38.539.321-77.082.09-115.623.1-13.266.005-15.744,2.849-12.821,16.109,1.238,5.62,3.9,10.93,4.483,18.349-13.717-9.868-27.434-19.739-42.985-30.926Z" transform="translate(-330.164 -440.035)" fill="#008000"/>
          <path id="Path_10229" data-name="Path 10229" d="M356.446,970.568c-29.185-118.813,40.4-266.539,156.734-322.241C414.959,733.518,366.821,842.917,356.446,970.568Z" transform="translate(-349.8 -463.807)" fill="#008000"/>
          <path id="Path_10230" data-name="Path 10230" d="M764.066,648.223c93.053,40.5,189.011,176.285,157.98,322.646C911.554,843.337,863.646,733.992,764.066,648.223Z" transform="translate(-307.477 -463.818)" fill="#008000"/>
          <path id="Path_10231" data-name="Path 10231" d="M532.944,855.382c5.354-6.731,11.15-14.015,17.84-22.428,11.932,13.652,28.209,10.42,43.711,10.447,48.621.09,97.239.034,146.365.034l8.3,21.993c-4.918.233-8.846.576-12.774.579q-77.5.054-154.987.027c-23.779,0-32.317,6.376-40.294,29.072-1.288-6.384-2.56-12.771-3.871-19.149C535.912,869.5,534.547,863.049,532.944,855.382Z" transform="translate(-331.089 -444.945)" fill="#008000"/>
        </g>
      </g>
    </g>
  </g>
</svg>
