<svg xmlns="http://www.w3.org/2000/svg" xmlns:xlink="http://www.w3.org/1999/xlink" width="40" height="40" viewBox="0 0 40 40">
  <defs>
    <clipPath id="clip-path">
      <rect id="Rectangle_7" data-name="Rectangle 7" width="21" height="19" stroke="#707070" stroke-width="1"/>
    </clipPath>
  </defs>
  <g id="log" transform="translate(-59.503 -4)">
    <path id="Path_5870" data-name="Path 5870" d="M5,0H35a5,5,0,0,1,5,5V35a5,5,0,0,1-5,5H5a5,5,0,0,1-5-5V5A5,5,0,0,1,5,0Z" transform="translate(59.503 4)" fill="#f1f3f8"/>
    <g id="Mask_Group_130" data-name="Mask Group 130" transform="translate(69.125 15)" clip-path="url(#clip-path)">
      <g id="XMLID_2_" transform="translate(0 1.692)">
        <path id="XMLID_4_" d="M12.014,11.455H.955a.955.955,0,1,1,0-1.909H12.014L10.779,8.311a.955.955,0,0,1,1.35-1.35l2.863,2.863c.022.022.043.045.063.069l.014.018c.015.019.029.037.042.057l.011.018c.013.02.026.041.038.063l.006.013c.012.023.024.047.034.071l0,.009c.01.026.02.052.028.079l0,.01c.008.026.015.053.02.08,0,.008,0,.016,0,.025s.008.045.01.068a.941.941,0,0,1,0,.191c0,.023-.006.046-.01.069s0,.016,0,.024c-.005.027-.012.054-.02.081l0,.01c-.008.027-.018.053-.028.079l0,.009c-.01.025-.022.048-.034.072l-.006.013c-.012.022-.025.043-.038.063l-.01.017c-.013.02-.028.038-.042.057l-.014.018c-.02.024-.041.047-.063.069l-2.863,2.863a.955.955,0,1,1-1.35-1.35Z" transform="translate(5.727 -2.692)"/>
        <path id="XMLID_5_" d="M14.353,2.692a7.8,7.8,0,0,1,6.485,3.458.955.955,0,0,1-1.585,1.065,5.9,5.9,0,1,0-.008,6.583.955.955,0,0,1,1.582,1.069A7.809,7.809,0,1,1,14.353,2.692Z" transform="translate(-6.545 -2.692)"/>
      </g>
    </g>
  </g>
</svg>
