<svg xmlns="http://www.w3.org/2000/svg" xmlns:xlink="http://www.w3.org/1999/xlink" width="61" height="61" viewBox="0 0 61 61">
  <defs>
    <clipPath id="clip-path">
      <rect id="Rectangle_2413" data-name="Rectangle 2413" width="61" height="61" transform="translate(823 418)" fill="#fff" stroke="#707070" stroke-width="1"/>
    </clipPath>
  </defs>
  <g id="login-lock" transform="translate(-823 -418)" clip-path="url(#clip-path)">
    <g id="open-padlock" transform="translate(823 418)">
      <path id="Path_6367" data-name="Path 6367" d="M44.389,59.471H10.6a3.746,3.746,0,0,1-3.746-3.746V31.876A3.746,3.746,0,0,1,10.6,28.13H44.389a3.746,3.746,0,0,1,3.746,3.746v23.85A3.746,3.746,0,0,1,44.389,59.471Z" fill="#ffb302"/>
      <path id="Path_6368" data-name="Path 6368" d="M32.8,39.495a5.3,5.3,0,1,0-8.358,4.328v9.585h6.115V43.822A5.292,5.292,0,0,0,32.8,39.495Z" fill="#efefef"/>
      <path id="Path_6369" data-name="Path 6369" d="M38.453,21.1h0a3.822,3.822,0,0,1-3.822-3.822v-.849a7.135,7.135,0,1,0-14.269-.12V28.13H12.717V16.5a14.779,14.779,0,1,1,29.557-.188v.968A3.822,3.822,0,0,1,38.453,21.1Z" fill="#ffb302"/>
      <g id="Group_4544" data-name="Group 4544">
        <path id="Path_6370" data-name="Path 6370" d="M44.389,26.6H21.89V16.307a5.614,5.614,0,0,1,5.715-5.6,5.7,5.7,0,0,1,5.5,5.724v.849a5.351,5.351,0,1,0,10.7,0v-.968A16.324,16.324,0,0,0,27.5,0h-.163A16.454,16.454,0,0,0,11.188,16.5V26.6H10.6a5.281,5.281,0,0,0-5.274,5.274v23.85A5.281,5.281,0,0,0,10.6,61H44.389a5.281,5.281,0,0,0,5.274-5.274V31.876A5.281,5.281,0,0,0,44.389,26.6ZM14.246,16.5A13.387,13.387,0,0,1,27.365,3.058H27.5a13.266,13.266,0,0,1,13.249,13.25v.968a2.293,2.293,0,1,1-4.586,0v-.849a8.768,8.768,0,0,0-8.5-8.781,8.671,8.671,0,0,0-8.83,8.662V26.6H14.246V16.5Zm32.36,39.23a2.219,2.219,0,0,1-2.217,2.217H10.6a2.219,2.219,0,0,1-2.217-2.217V31.876A2.219,2.219,0,0,1,10.6,29.659H44.389a2.219,2.219,0,0,1,2.217,2.217v23.85Z" fill="#292c31"/>
        <path id="Path_6371" data-name="Path 6371" d="M27.5,32.666a6.827,6.827,0,0,0-4.586,11.886v8.855a1.529,1.529,0,0,0,1.529,1.529h6.115a1.529,1.529,0,0,0,1.529-1.529V44.552A6.827,6.827,0,0,0,27.5,32.666Zm2.174,9.909a1.529,1.529,0,0,0-.646,1.248v8.056H25.967V43.822a1.529,1.529,0,0,0-.646-1.248,3.771,3.771,0,1,1,4.349,0Z" fill="#292c31"/>
        <path id="Path_6372" data-name="Path 6372" d="M54.907,25.774l-5.34-3.083a1.529,1.529,0,0,0-1.529,2.648l5.34,3.083a1.529,1.529,0,0,0,1.529-2.648Z" fill="#292c31"/>
        <path id="Path_6373" data-name="Path 6373" d="M48.8,19.429a1.523,1.523,0,0,0,.763-.205l5.34-3.083a1.529,1.529,0,0,0-1.529-2.648l-5.34,3.083a1.529,1.529,0,0,0,.766,2.853Z" fill="#292c31"/>
      </g>
    </g>
  </g>
</svg>
