<svg xmlns="http://www.w3.org/2000/svg" xmlns:xlink="http://www.w3.org/1999/xlink" width="1439" height="1479" viewBox="0 0 1439 1479">
  <defs>
    <clipPath id="clip-path">
      <rect id="Rectangle_2302" data-name="Rectangle 2302" width="1439" height="1479" transform="translate(60 229)" fill="none" stroke="#707070" stroke-width="1"/>
    </clipPath>
  </defs>
  <g id="logooo" transform="translate(-60 -229)" clip-path="url(#clip-path)">
    <g id="Group_13953" data-name="Group 13953" transform="translate(352.14 253.476)">
      <g id="Vector_Smart_Object" data-name="Vector Smart Object" transform="translate(14.072 952.334)">
        <g id="Group_13951" data-name="Group 13951" transform="translate(0 0)">
          <path id="Path_10223" data-name="Path 10223" d="M20.2,463.456l296.2,62.306c1.154-6.37,1.225-6.594-3.557-8.316C286.4,507.925,260.1,497.877,233.4,489.235c-36.326-11.76-73.193-21.636-109.412-33.74-46.908-15.677-77.733-48.333-87.968-100.97-.337-1.736-.042-3.612-.042-6.749,91.112,40.18,180.754,81.844,271.255,121.249l1.944-3.63c-2.854-2.319-5.473-5.109-8.6-6.887-56.667-32.241-113.423-64.289-172.667-90.949-20.521-9.234-40.463-19.695-56.621-36.6-20.059-20.988-32.434-46.19-35.538-76.267-.3-2.881-.763-5.747-.939-8.634-.161-2.634-.034-5.287-.034-9.318,3.315,1.907,6.065,3.181,8.508,4.941q103.16,74.348,206.267,148.776c41,29.554,82.219,58.75,122.975,88.677,15.417,11.32,32.5,15.911,50.471,18.471,14.91,2.124,29.918,3.667,44.707,6.509,14.843,2.851,18.793,8.756,19.1,27.023,2.546-2.774,4.621-4.279,5.734-6.368,9.889-18.579,8.865-43.167-4.573-57.224-13.267-13.876-10-32.786,6.932-40.85a136.706,136.706,0,0,1,40.422-11.529c16.877-2.242,34.12-1.177,51.171-2.175a30.47,30.47,0,0,0,14.489-4.39q97.292-63.767,194.276-128.075c18.638-12.316,37.214-24.738,55.84-37.075,1.384-.915,2.947-1.527,6.191-3.178-.754,9.419-.737,17.48-2.13,25.251-8.682,48.42-36.532,80.213-77.77,99.246-62.144,28.679-122.656,60.838-182.037,95.486-2.3,1.342-3.76,4.341-5.612,6.568L592,469.984,857.215,350.846c-2.437,10.47-3.7,19.43-6.593,27.741-15.584,44.736-47.318,70.038-88.935,83.025-41.433,12.93-82.954,25.542-124.325,38.694-17.014,5.408-33.788,11.7-50.539,17.986-2.795,1.05-4.924,4.125-7.361,6.265q.856,1.908,1.71,3.817l289.611-60.91c-3.1,13.424-9.107,24.409-16.166,34.619-19.773,28.6-46.684,45.34-79.262,50.534-19.244,3.07-38.883,3.248-58.322,5.01-25.831,2.339-51.661,4.737-77.454,7.518-23.329,2.516-46.619,5.488-69.891,8.557a8.369,8.369,0,0,0-5.718,4.263c-15.617,37.925-36.869,71.718-66.5,98.512-13.4,12.118-29.136,21.324-44.065,31.426-1.913,1.295-5.728.909-8.021-.205-21.586-10.5-39.83-26.057-56.391-43.936-23.516-25.386-41.186-54.922-54.239-87.766-.983-2.478-4.472-5.045-7.048-5.384-34.3-4.526-68.592-9.18-102.985-12.72-25.584-2.634-51.3-3.976-76.977-5.389-30.494-1.677-59.689-7.337-85.195-27.045C42.7,510.119,29.472,489.828,20.2,463.456ZM433.667,594.017c0,13.878-.152,26.571.036,39.257.285,19.27-3.6,17.337,16.6,17.727,6.185.121,8.126-2.274,7.97-8.814-.38-15.8-.124-31.621-.124-48.168,3.7,0,6.668-.345,9.537.067,7.27,1.048,10.149-2.258,9.338-9.839a28.392,28.392,0,0,1-.013-4.763c.369-5.792-2.127-8.037-7.516-7.973-15.858.19-31.72-.014-47.578.163-2.016.022-5.64,1.17-5.758,2.171-.669,5.661-1.162,11.568-.188,17.083.277,1.562,5.622,2.411,8.739,2.991C427.315,594.4,430.057,594.017,433.667,594.017Z" transform="translate(-20.2 -236.736)" fill="#fff"/>
          <path id="Path_10224" data-name="Path 10224" d="M301.711,373.918c-13.133-3.355-16.122-5.7-21.711-16.8C289.485,359.414,296.137,364.734,301.711,373.918Z" transform="translate(126.216 -155.637)" fill="#fff"/>
          <path id="Path_10225" data-name="Path 10225" d="M291.212,459.264c-3.61,0-6.352.385-8.955-.1-3.117-.58-8.461-1.428-8.739-2.99-.974-5.515-.481-11.423.188-17.084.117-1,3.742-2.148,5.757-2.17,15.858-.177,31.72.027,47.578-.162,5.388-.064,7.885,2.182,7.516,7.973a28.4,28.4,0,0,0,.013,4.763c.812,7.581-2.068,10.887-9.338,9.84-2.869-.413-5.834-.067-9.537-.067,0,16.547-.256,32.366.124,48.169.156,6.54-1.785,8.935-7.97,8.814-20.2-.39-16.318,1.543-16.6-17.726C291.06,485.835,291.212,473.142,291.212,459.264Z" transform="translate(122.255 -101.983)" fill="none"/>
        </g>
      </g>
      <g id="Vector_Smart_Object-2" data-name="Vector Smart Object">
        <g id="Group_13952" data-name="Group 13952">
          <path id="Path_10226" data-name="Path 10226" d="M695.62,1180.205c-24.208-3.153-48.57-5.345-72.594-9.666-46.216-8.309-89.667-25.572-130.848-49.341a51.88,51.88,0,0,1-7.782-5.891c-.527-.456-.27-1.941-.634-5.393,11.391,5.49,21.593,10.858,32.112,15.4,43.738,18.884,88.464,29.773,136.123,20.736,16.735-3.169,30.162-10.978,40.972-24.46,5.71-7.125,12.022-9.962,18.71-2.34,30.773,35.073,69.946,32.919,109.191,27.073,23.893-3.563,47.319-10.705,71.818-14.5-13.35,6.176-26.456,13.077-40.1,18.391-40.382,15.72-82.043,25.092-125.1,27.076-8.5.4-16.953,1.912-25.426,2.913Z" transform="translate(-274.303 -57.154)" fill="#fff"/>
          <path id="Path_10227" data-name="Path 10227" d="M782.088,480.911c15.834,35.3,30.448,67.918,45.083,100.521,27.608,61.5,54.5,123.374,83.01,184.394,42.384,90.73,85.823,180.9,128.969,271.223,26.4,55.249,52.745,110.529,79.759,165.438,18.78,38.171,39.221,75.418,57.808,113.7,10.681,21.988,19.292,45.132,28.538,67.895,3.895,9.593-.344,14.111-9.429,14.189-15.545.137-31.121.751-46.62-.151-12.3-.717-21.641,3.627-29.773,13.1-6.868,8-14.894,14.879-21.6,23.017-27.589,33.509-65.562,47.832-102.651,63.822-1.209.521-2.979-.435-3.223-.48,9.014-10.159,18.343-20.705,27.707-31.223,30.632-34.407,34.438-74.832,25.163-119.2-5.2-24.886-10.529-50.5-10.3-75.728.271-29.542-9.413-54.031-21.415-79.113Q903.1,962.415,793.794,732.135c-3.78-7.936-7.965-15.655-13.205-25.913-3.755,5.88-6.344,9.119-8.1,12.811-40.44,84.753-80.437,169.747-121.257,254.289-36.4,75.395-73.53,150.4-110.7,225.37-10.963,22.112-16.22,44.923-17.516,70.17a685.355,685.355,0,0,1-12.247,99.273c-11.491,57.3,5.771,101.818,47.27,137.652a21.665,21.665,0,0,1,6.65,8.766c-32.633-13.25-66.633-22.962-92.511-50.374-15.541-16.461-30.445-34.407-48.438-47.2-16.274-11.572-36.355-17.051-56.625-26.047-2.5-26.133,10.435-51.5,22.737-77.257q106.913-223.868,213.485-447.918C640.3,788.108,677.59,710.631,713.82,632.591c21.75-46.854,41.731-94.645,62.56-141.986C777.4,488.283,778.938,486.214,782.088,480.911Z" transform="translate(-340.223 -480.911)" fill="#fff"/>
          <path id="Path_10228" data-name="Path 10228" d="M542,1070.185c45.932,8.381,65.684-32.938,92.472-60.361,38.51-39.42,74.943-81.145,112.363-121.781,2.545-2.763,5.861-6.533,8.921-6.639,17.854-.631,35.737-.312,54.206-.312-10.05,20.3-18.656,37.694-29.564,59.73-1.554-13.415-2.516-21.742-4.134-35.7-56.551,61.864-109.991,120.323-166.614,182.267,10.046,1.032,14.621,1.9,19.2,1.91q78.795.088,157.59-.055c32.636-.034,45.836-11.586,54.284-45.6,4.191,19.883,8.38,39.767,13,61.691l-25.794,33.684c-13.119-14.444-30.378-17.184-49.091-17.017-54.672.487-109.352.136-164.028.157-18.819.008-22.336,4.327-18.189,24.462,1.756,8.535,5.53,16.6,6.36,27.864-19.46-14.985-38.919-29.975-60.981-46.963Z" transform="translate(-241.48 -211.365)" fill="#fff"/>
          <path id="Path_10229" data-name="Path 10229" d="M359.229,1137.667c-41.4-180.424,57.314-404.754,222.349-489.34C442.236,777.695,373.947,943.822,359.229,1137.667Z" transform="translate(-349.8 -368.123)" fill="#fff"/>
          <path id="Path_10230" data-name="Path 10230" d="M764.066,648.223c132.008,61.507,268.138,267.7,224.117,489.955C973.3,944.514,905.333,778.469,764.066,648.223Z" transform="translate(-116.331 -368.194)" fill="#fff"/>
          <path id="Path_10231" data-name="Path 10231" d="M532.944,867.012c7.6-10.221,15.818-21.282,25.308-34.058,16.928,20.732,40.019,15.823,62.01,15.864,68.976.137,137.948.052,207.64.052,3.765,10.673,7.425,21.05,11.781,33.4-6.977.354-12.549.875-18.121.879q-109.939.082-219.87.041c-33.733,0-45.846,9.682-57.163,44.147-1.827-9.7-3.631-19.393-5.491-29.079C537.155,888.451,535.218,878.655,532.944,867.012Z" transform="translate(-246.585 -243.741)" fill="#fff"/>
        </g>
      </g>
    </g>
  </g>
</svg>
