<svg xmlns="http://www.w3.org/2000/svg" width="478.31" height="101.55" viewBox="0 0 478.31 101.55">
  <g id="logo1" transform="translate(-239.102 -259.034)">
    <circle id="Ellipse_1" data-name="Ellipse 1" cx="13.766" cy="13.766" r="13.766" transform="translate(383.501 262.92)" fill="#ffc200"/>
    <g id="Group_1" data-name="Group 1" transform="translate(239.102 259.034)">
      <path id="Path_1" data-name="Path 1" d="M438.7,309.4c0-16.83-11.692-22.95-29.677-22.95-12.014,0-19.522,4.694-26.588,4.694a32.237,32.237,0,0,1-7.124-.864v54.864a6.793,6.793,0,0,0,6.793,6.8h14.137V308.312c0-7.184,4.819-10.766,10.766-10.766s10.766,3.583,10.766,10.766v36.834a6.791,6.791,0,0,0,6.789,6.8H442.2a14.55,14.55,0,0,1-3.506-9.5Z" transform="translate(-196.173 -250.392)" fill="#fff"/>
      <path id="Path_2" data-name="Path 2" d="M373.219,313.779V303.019l0,0v-9.766a6.791,6.791,0,0,0-6.792-6.8H348.786a14.548,14.548,0,0,1,3.5,9.492v38.717l0-.007v10.49a6.791,6.791,0,0,0,6.79,6.8h17.639a14.555,14.555,0,0,1-3.5-9.493Z" transform="translate(-204.532 -250.392)" fill="#fff"/>
      <path id="Path_3" data-name="Path 3" d="M595.519,347.064,569.88,314.8l-.137-.172,22.395-28.179H577.512l-15.083,18.977-9.2-11.579,0,0h-.008a20.577,20.577,0,0,0-15.821-7.4H520.336l3.825,4.813,24.764,31.158-23.412,29.457H540.14l16.1-20.254,10.1,12.7.05.063a20.584,20.584,0,0,0,15.9,7.487h17.064Z" transform="translate(-150.464 -250.392)" fill="#fff"/>
      <path id="Path_4" data-name="Path 4" d="M467.566,340.429h-9.743V324.922h11.124V313.471H457.823V303.019l0,0v-9.766a6.79,6.79,0,0,0-6.79-6.8H433.39a14.541,14.541,0,0,1,3.5,9.492v17.527h-5.442v11.451h5.442v9.739l0-.007v10.49a6.792,6.792,0,0,0,6.791,6.8h17.638c-.016-.02-.03-.042-.047-.062h17.4c0-.109.016-.217.016-.327A11.123,11.123,0,0,0,467.566,340.429Z" transform="translate(-178.479 -250.392)" fill="#fff"/>
      <path id="Path_5" data-name="Path 5" d="M358.557,324.91V309.4c0-13.883-7.961-20.473-20.84-22.357a57.386,57.386,0,0,0-6.458-.554l-.1,0q-1.1-.034-2.225-.034l-.229.005v-.007H295.266c0,.063-.009.125-.009.189a10.959,10.959,0,0,0,10.924,10.924h20.263l.068,0c.118,0,.233-.017.352-.017l.045,0,.045,0c5.787,0,10.49,3.4,10.741,10.2l.007,5.721H295.257v15.526c0,16.83,11.692,22.95,29.677,22.95a53.584,53.584,0,0,0,14.514-2.177c4.535-1.228,8.369-2.519,12.073-2.519a32.321,32.321,0,0,1,7.124.864V344a14.82,14.82,0,0,1-.089-1.555Zm-20.84.249v4.924a14.786,14.786,0,0,1-.087,1.537l0,.022h0a9.578,9.578,0,0,1-6.78,8.629c-.045.013-.092.024-.137.037-.259.079-.52.153-.788.214-.091.021-.186.033-.278.053-.226.046-.451.093-.683.128-.171.025-.349.038-.522.057-.156.017-.312.039-.471.051q-.5.036-1.018.035c-5.949,0-10.766-3.581-10.766-10.765V324.91h21.532Z" transform="translate(-221.403 -250.392)" fill="#fff"/>
      <path id="Path_6" data-name="Path 6" d="M501.879,286.452a53.586,53.586,0,0,0-14.514,2.177c-4.535,1.227-8.368,2.517-12.073,2.517a32.237,32.237,0,0,1-7.124-.864V294.4a14.741,14.741,0,0,1,.089,1.553v33.044c0,13.882,7.961,20.472,20.84,22.357a57.743,57.743,0,0,0,6.457.554l.1,0q1.1.034,2.225.034c.076,0,.151-.005.229-.005h0v.005h33.438c0-.064.009-.126.009-.189a10.959,10.959,0,0,0-10.924-10.925H500.369l-.069,0c-.118,0-.233.017-.352.017h-.089c-5.787,0-10.49-3.4-10.741-10.2l-.007-5.722h42.445V309.4C531.556,292.571,519.863,286.452,501.879,286.452Zm8.748,27.032H489.1v-5.173a14.763,14.763,0,0,1,.087-1.537l0-.024h0a9.578,9.578,0,0,1,6.78-8.629c.045-.015.092-.024.137-.037.259-.079.519-.154.788-.214.091-.021.185-.034.277-.053.226-.046.451-.093.683-.128.171-.025.347-.038.522-.057.156-.017.312-.041.471-.051.335-.024.674-.037,1.018-.037,5.948,0,10.765,3.583,10.765,10.766Z" transform="translate(-166.906 -250.392)" fill="#fff"/>
      <path id="Path_7" data-name="Path 7" d="M272.815,259.034c-12.014,0-19.522,4.694-26.588,4.694a32.336,32.336,0,0,1-7.126-.864v90.923a6.794,6.794,0,0,0,6.794,6.8h14.137V333.612h18.743a23.708,23.708,0,0,0,23.717-23.694V281.983C302.492,265.154,290.8,259.034,272.815,259.034Zm8.749,27.314v23.647h0A12.166,12.166,0,0,1,269.4,322.161h-9.365V280.892c0-7.183,4.819-10.765,10.766-10.765s10.765,3.581,10.765,10.765Z" transform="translate(-239.102 -259.034)" fill="#fff"/>
    </g>
    <g id="Group_3" data-name="Group 3" transform="translate(697.354 295.094)">
      <g id="Group_2" data-name="Group 2" transform="translate(0 0)">
        <path id="Path_8" data-name="Path 8" d="M607.594,296.48a10.029,10.029,0,1,1-10.012-10.028A10.015,10.015,0,0,1,607.594,296.48Zm-10.02-8.817a8.819,8.819,0,1,0,8.81,8.824A8.83,8.83,0,0,0,597.573,287.663Z" transform="translate(-587.536 -286.452)" fill="#ffc200"/>
        <path id="Path_9" data-name="Path 9" d="M600.38,293.017l-1.345,5.317h-1.341l-1.338-5.317-.022,0v5.315h-1.278v-6.869h.129c.6,0,1.194,0,1.791,0,.114,0,.162.029.192.145q.582,2.217,1.176,4.432c.005.022.013.045.032.1l.183-.681q.509-1.931,1.015-3.865c.025-.1.059-.134.166-.133.6.007,1.21,0,1.815,0h.129v6.868h-1.269v-5.315Z" transform="translate(-585.166 -284.873)" fill="#ffc200"/>
        <path id="Path_10" data-name="Path 10" d="M593.65,298.334h-1.383v-5.709h-2.037V291.47h5.454v1.148H593.65Z" transform="translate(-586.687 -284.87)" fill="#ffc200"/>
      </g>
    </g>
  </g>
</svg>
