<svg xmlns="http://www.w3.org/2000/svg" xmlns:xlink="http://www.w3.org/1999/xlink" width="50" height="52" viewBox="0 0 50 52">
  <defs>
    <clipPath id="clip-path">
      <rect id="Rectangle_2371" data-name="Rectangle 2371" width="50" height="52" transform="translate(0.267 -0.871)" fill="#ffb302" stroke="#707070" stroke-width="1"/>
    </clipPath>
  </defs>
  <g id="Mask_Group_220" data-name="Mask Group 220" transform="translate(-0.267 0.871)" clip-path="url(#clip-path)">
    <g id="cash_3_" data-name="cash (3)" transform="translate(0.018 8.193)">
      <path id="Path_6486" data-name="Path 6486" d="M12.005,23.433h.583a6.861,6.861,0,0,0,6.687,5.37,1.48,1.48,0,0,0,0-2.959,3.9,3.9,0,0,1-3.6-2.411h3.6a1.48,1.48,0,1,0,0-2.959h-3.6a3.9,3.9,0,0,1,3.6-2.411,1.48,1.48,0,1,0,0-2.959,6.861,6.861,0,0,0-6.687,5.37h-.583a1.48,1.48,0,1,0,0,2.959Z" transform="translate(4.656 -1.411)" fill="#ffb302"/>
      <path id="Path_6487" data-name="Path 6487" d="M49,5.61H7.942a1.48,1.48,0,0,0-1.48,1.48v5.443H1.48A1.48,1.48,0,0,0,0,14.013V38.429a1.48,1.48,0,0,0,1.48,1.48H42.808a1.48,1.48,0,0,0,1.48-1.48V32.986H49a1.48,1.48,0,0,0,1.48-1.48V7.09A1.48,1.48,0,0,0,49,5.61ZM36.776,12.533H20.184a10.664,10.664,0,0,1,16.592,0ZM32.4,26.221A10.729,10.729,0,1,1,21.668,15.492,10.741,10.741,0,0,1,32.4,26.221ZM9.422,8.569H20.037a13.984,13.984,0,0,0-3.45,3.963H9.422ZM2.959,36.95V15.492H13.178a13.672,13.672,0,0,0,0,21.457Zm38.369,0H30.159a13.672,13.672,0,0,0,0-21.457H41.328Zm6.194-6.923H44.288V14.013a1.48,1.48,0,0,0-1.48-1.48H40.371a13.949,13.949,0,0,0-3.449-3.963h10.6Z" transform="translate(0 -5.61)" fill="#ffb302"/>
    </g>
  </g>
</svg>
