<svg xmlns="http://www.w3.org/2000/svg" xmlns:xlink="http://www.w3.org/1999/xlink" width="20" height="20" viewBox="0 0 20 20">
  <defs>
    <clipPath id="clip-path">
      <rect id="Rectangle_692" data-name="Rectangle 692" width="20" height="20" transform="translate(275.7 45)" fill="#292c31" stroke="#707070" stroke-width="1"/>
    </clipPath>
  </defs>
  <g id="Mask_Group_214" data-name="Mask Group 214" transform="translate(-275.7 -45)" clip-path="url(#clip-path)">
    <g id="pin" transform="translate(275.7 45)">
      <path id="Path_6421" data-name="Path 6421" d="M10,20a1.194,1.194,0,0,1-1.046-.606l-.007-.012L3.988,10.3a6.963,6.963,0,0,1,.091-6.88A6.787,6.787,0,0,1,9.846,0c.1,0,.205,0,.308,0a6.787,6.787,0,0,1,5.767,3.423,6.963,6.963,0,0,1,.091,6.88l-4.959,9.078-.007.012A1.194,1.194,0,0,1,10,20ZM10,1.25H9.872a5.546,5.546,0,0,0-4.711,2.8,5.722,5.722,0,0,0-.075,5.654L10,18.7l4.915-9a5.722,5.722,0,0,0-.075-5.654,5.546,5.546,0,0,0-4.711-2.8H10Z" fill="#292c31"/>
      <path id="Path_6422" data-name="Path 6422" d="M10,9.062A2.812,2.812,0,1,1,12.812,6.25,2.816,2.816,0,0,1,10,9.062Zm0-4.375A1.562,1.562,0,1,0,11.562,6.25,1.564,1.564,0,0,0,10,4.687Z" fill="#292c31"/>
    </g>
  </g>
</svg>
