<svg xmlns="http://www.w3.org/2000/svg" xmlns:xlink="http://www.w3.org/1999/xlink" width="20" height="20" viewBox="0 0 20 20">
  <defs>
    <clipPath id="clip-path">
      <rect id="Rectangle_694" data-name="Rectangle 694" width="20" height="20" transform="translate(312 43)" fill="#2f3640" stroke="#707070" stroke-width="1"/>
    </clipPath>
  </defs>
  <g id="Mask_Group_23" data-name="Mask Group 23" transform="translate(-312 -43)" clip-path="url(#clip-path)">
    <g id="shipping" transform="translate(312 43.03)">
      <path id="Path_3041" data-name="Path 3041" d="M13.845,6.307H6.74a.586.586,0,0,0-.586.586v6.829a.586.586,0,0,0,.586.586h7.1a.586.586,0,0,0,.586-.586V6.893a.586.586,0,0,0-.586-.586ZM10.9,7.479v.99H9.68v-.99Zm2.354,5.658H7.326V7.479H8.508V9.055a.586.586,0,0,0,.586.586h2.4a.586.586,0,0,0,.586-.586V7.479h1.182Z" transform="translate(-0.293 -0.33)" fill="#2f3640"/>
      <path id="Path_3042" data-name="Path 3042" d="M9.407,2.395,9.814,2V4.21a.586.586,0,1,0,1.172,0V2l.408.4a.586.586,0,0,0,.816-.841L10.838.224a.6.6,0,0,0-.85-.031l-1.4,1.363a.586.586,0,0,0,.818.839Z" transform="translate(-0.401 -0.031)" fill="#2f3640"/>
      <path id="Path_3043" data-name="Path 3043" d="M11.394,18.367l-.407.4V16.552a.586.586,0,0,0-1.172,0v2.21l-.408-.4a.586.586,0,0,0-.816.841l1.372,1.331a.6.6,0,0,0,.85.031l1.4-1.363A.586.586,0,0,0,11.394,18.367Z" transform="translate(-0.401 -0.79)" fill="#2f3640"/>
      <path id="Path_3044" data-name="Path 3044" d="M2.353,12.383a.586.586,0,0,0,.011-.829l-.4-.407H4.179a.586.586,0,0,0,0-1.172H1.969l.4-.408a.586.586,0,0,0-.841-.816L.193,10.123a.6.6,0,0,0-.031.85l1.363,1.4A.6.6,0,0,0,2.353,12.383Z" transform="translate(0 -0.438)" fill="#2f3640"/>
      <path id="Path_3045" data-name="Path 3045" d="M20.759,10.611a.622.622,0,0,0-.164-.464l-1.363-1.4a.586.586,0,0,0-.839.818l.4.407H16.578a.586.586,0,1,0,0,1.172h2.21l-.4.408a.586.586,0,0,0,.841.816L20.564,11A.584.584,0,0,0,20.759,10.611Z" transform="translate(-0.762 -0.438)" fill="#2f3640"/>
      <path id="Path_3046" data-name="Path 3046" d="M16.06,5.536a.584.584,0,0,0,.414-.172L18.037,3.8l.009.569a.586.586,0,0,0,1.172-.018l-.029-1.912a.605.605,0,0,0-.579-.623l-1.953-.025a.586.586,0,0,0-.015,1.172l.569.007L15.646,4.535a.586.586,0,0,0,.414,1Z" transform="translate(-0.737 -0.115)" fill="#2f3640"/>
      <path id="Path_3047" data-name="Path 3047" d="M4.369,15.813,2.806,17.375,2.8,16.806a.586.586,0,0,0-1.172.018l.029,1.912a.605.605,0,0,0,.579.623l1.953.025A.586.586,0,0,0,4.2,18.212l-.569-.007L5.2,16.641a.586.586,0,1,0-.829-.829Z" transform="translate(-0.077 -0.774)" fill="#2f3640"/>
      <path id="Path_3048" data-name="Path 3048" d="M3.663,2.956l.569-.009a.586.586,0,0,0-.018-1.172L2.3,1.8a.605.605,0,0,0-.623.579L1.655,4.337a.586.586,0,0,0,1.172.015l.007-.569L4.4,5.347a.586.586,0,0,0,.829-.829Z" transform="translate(-0.079 -0.114)" fill="#2f3640"/>
      <path id="Path_3049" data-name="Path 3049" d="M18.668,16.212a.6.6,0,0,0-.593.578l-.007.569L16.5,15.8a.586.586,0,1,0-.829.829l1.563,1.563-.569.009a.586.586,0,0,0,.018,1.172l1.911-.029a.6.6,0,0,0,.624-.579l.025-1.953A.586.586,0,0,0,18.668,16.212Z" transform="translate(-0.738 -0.774)" fill="#2f3640"/>
    </g>
  </g>
</svg>
