<svg xmlns="http://www.w3.org/2000/svg" xmlns:xlink="http://www.w3.org/1999/xlink" width="20" height="20" viewBox="0 0 20 20">
  <defs>
    <clipPath id="clip-path">
      <rect id="Rectangle_692" data-name="Rectangle 692" width="20" height="20" transform="translate(275.699 45)" fill="#2f3640" stroke="#707070" stroke-width="1"/>
    </clipPath>
  </defs>
  <g id="Mask_Group_224" data-name="Mask Group 224" transform="translate(-275.699 -45)" clip-path="url(#clip-path)">
    <g id="coin" transform="translate(275.699 45)">
      <path id="Path_6509" data-name="Path 6509" d="M20,12.2a7.22,7.22,0,0,0-1.148-3.916,2.153,2.153,0,0,0,.827-1.819A2.384,2.384,0,0,0,17.3,4.082H15.936A2.383,2.383,0,0,0,13.854.548H2.379a2.383,2.383,0,0,0,0,4.767H3.742a2.381,2.381,0,0,0,0,2.3H3.035a2.383,2.383,0,0,0-1.594,4.151,2.383,2.383,0,0,0,0,3.534,2.383,2.383,0,0,0,1.594,4.151H12.9l.048,0A7.254,7.254,0,0,0,20,12.2ZM18.449,6.454a1.118,1.118,0,0,1-.351.851,7.255,7.255,0,0,0-3.063-1.991H17.3A1.151,1.151,0,0,1,18.449,6.454ZM1.23,2.931A1.151,1.151,0,0,1,2.379,1.78H13.854a1.151,1.151,0,0,1,0,2.3H2.379A1.151,1.151,0,0,1,1.23,2.931ZM4.675,6.466A1.151,1.151,0,0,1,5.824,5.314h4.664a7.263,7.263,0,0,0-3.332,2.3H5.824A1.151,1.151,0,0,1,4.675,6.466ZM1.886,10A1.151,1.151,0,0,1,3.035,8.849H6.344a7.206,7.206,0,0,0-.745,2.3H3.035A1.151,1.151,0,0,1,1.886,10Zm0,3.534a1.151,1.151,0,0,1,1.149-1.151H5.526a7.225,7.225,0,0,0,.436,2.3H3.035a1.151,1.151,0,0,1-1.149-1.151ZM3.035,18.22a1.151,1.151,0,0,1,0-2.3H6.55a7.3,7.3,0,0,0,2.181,2.3Zm9.727,0A6.02,6.02,0,1,1,18.77,12.2,6.021,6.021,0,0,1,12.762,18.22Z" fill="#2f3640"/>
      <path id="Path_6510" data-name="Path 6510" d="M13.776,9.871a.616.616,0,0,0,0-1.232A3.578,3.578,0,0,0,10.259,11.6H9.774a.616.616,0,0,0,0,1.232h.484a3.578,3.578,0,0,0,3.517,2.961.616.616,0,0,0,0-1.232,2.345,2.345,0,0,1-2.258-1.729h2.258a.616.616,0,0,0,0-1.232H11.518a2.345,2.345,0,0,1,2.258-1.729Z" fill="#2f3640"/>
    </g>
  </g>
</svg>
