<svg xmlns="http://www.w3.org/2000/svg" xmlns:xlink="http://www.w3.org/1999/xlink" width="24" height="24" viewBox="0 0 24 24">
  <defs>
    <clipPath id="clip-path">
      <rect id="Rectangle_2406" data-name="Rectangle 2406" width="24" height="24" transform="translate(1481 1321)" fill="#fff" stroke="#707070" stroke-width="1"/>
    </clipPath>
  </defs>
  <g id="most" transform="translate(-1481 -1321)" clip-path="url(#clip-path)">
    <g id="export" transform="translate(1481 1321)">
      <path id="Path_6302" data-name="Path 6302" d="M19.7,23.458a.542.542,0,0,1-.542.542H4.846a.542.542,0,0,1-.542-.542V10.119a.542.542,0,0,1,.542-.542H19.154a.542.542,0,0,1,.542.542Z" fill="#ffd064"/>
      <path id="Path_6303" data-name="Path 6303" d="M18.06,9.577a.533.533,0,0,1,.533.533V24h.561a.542.542,0,0,0,.542-.542V10.119a.542.542,0,0,0-.542-.542Z" fill="#ffc250"/>
      <g id="Group_4504" data-name="Group 4504">
        <path id="Path_6304" data-name="Path 6304" d="M16.017,21.776a.961.961,0,0,1-1.359-.018l-.228-.235a.056.056,0,0,1,0-.08l1.549-1.507a.056.056,0,0,0,0-.081l-1.549-1.508a.056.056,0,0,1,0-.08l.228-.235a.961.961,0,0,1,1.359-.018l1.429,1.391a.689.689,0,0,1,.17.255.674.674,0,0,1-.162.716Z" fill="#f9f6f6"/>
      </g>
      <path id="Path_6305" data-name="Path 6305" d="M12.948,12.109h-1.9a.318.318,0,0,1-.318-.318V9.577h2.532v2.214A.318.318,0,0,1,12.948,12.109Z" fill="#26457d"/>
      <path id="Path_6306" data-name="Path 6306" d="M12.343,9.577v2.214a.318.318,0,0,1-.318.318h.923a.318.318,0,0,0,.318-.318V9.577Z" fill="#21386b"/>
      <g id="Group_4507" data-name="Group 4507">
        <g id="Group_4505" data-name="Group 4505">
          <path id="Path_6307" data-name="Path 6307" d="M7.283,21.2a.363.363,0,0,1-.363-.363V18.465a.363.363,0,1,1,.727,0v2.373A.363.363,0,0,1,7.283,21.2Z" fill="#26457d"/>
        </g>
        <g id="Group_4506" data-name="Group 4506">
          <path id="Path_6308" data-name="Path 6308" d="M6.282,19.435a.363.363,0,0,1-.255-.622l1-.988a.363.363,0,0,1,.511,0l1,.988a.363.363,0,0,1-.511.517l-.746-.736-.745.736a.362.362,0,0,1-.255.1Z" fill="#26457d"/>
        </g>
      </g>
      <g id="Group_4510" data-name="Group 4510">
        <g id="Group_4508" data-name="Group 4508">
          <path id="Path_6309" data-name="Path 6309" d="M10.49,21.2a.363.363,0,0,1-.363-.363V18.465a.363.363,0,0,1,.727,0v2.373A.363.363,0,0,1,10.49,21.2Z" fill="#26457d"/>
        </g>
        <g id="Group_4509" data-name="Group 4509">
          <path id="Path_6310" data-name="Path 6310" d="M9.489,19.435a.363.363,0,0,1-.255-.622l1-.988a.363.363,0,0,1,.511,0l1,.988a.363.363,0,0,1-.511.517l-.746-.736-.745.736A.362.362,0,0,1,9.489,19.435Z" fill="#26457d"/>
        </g>
      </g>
      <path id="Path_6311" data-name="Path 6311" d="M14.61,2.5,12.135.056a.192.192,0,0,0-.271,0L9.39,2.5a.1.1,0,0,0,.072.175h.98a.29.29,0,0,1,.29.29V7.317a.217.217,0,0,0,.217.217h2.1a.217.217,0,0,0,.217-.217V2.968a.29.29,0,0,1,.29-.29h.98A.1.1,0,0,0,14.61,2.5Z" fill="#95d6a4"/>
      <g id="Group_4511" data-name="Group 4511">
        <path id="Path_6312" data-name="Path 6312" d="M12.262,2.968V7.535h.788a.217.217,0,0,0,.217-.217V2.968a.29.29,0,0,1,.29-.29H12.553a.29.29,0,0,0-.29.29Z" fill="#78c2a4"/>
        <path id="Path_6313" data-name="Path 6313" d="M11.865.056,11.5.419,13.78,2.678h.757A.1.1,0,0,0,14.61,2.5L12.135.056a.192.192,0,0,0-.271,0Z" fill="#78c2a4"/>
      </g>
      <g id="Group_4518" data-name="Group 4518">
        <g id="Group_4514" data-name="Group 4514">
          <g id="Group_4512" data-name="Group 4512">
            <path id="Path_6314" data-name="Path 6314" d="M7.722,8.539a.363.363,0,0,1-.363-.363V4.656a.363.363,0,0,1,.727,0v3.52A.363.363,0,0,1,7.722,8.539Z" fill="#95d6a4"/>
          </g>
          <g id="Group_4513" data-name="Group 4513">
            <path id="Path_6315" data-name="Path 6315" d="M8.768,5.437a.362.362,0,0,1-.227-.08L7.722,4.7,6.9,5.357a.363.363,0,0,1-.454-.568l1.046-.836a.363.363,0,0,1,.454,0l1.046.836a.363.363,0,0,1-.227.647Z" fill="#95d6a4"/>
          </g>
        </g>
        <g id="Group_4517" data-name="Group 4517">
          <g id="Group_4515" data-name="Group 4515">
            <path id="Path_6316" data-name="Path 6316" d="M16.278,8.539a.363.363,0,0,1-.363-.363V4.656a.363.363,0,0,1,.727,0v3.52A.363.363,0,0,1,16.278,8.539Z" fill="#95d6a4"/>
          </g>
          <g id="Group_4516" data-name="Group 4516">
            <path id="Path_6317" data-name="Path 6317" d="M17.324,5.437a.362.362,0,0,1-.227-.08L16.278,4.7l-.819.655a.363.363,0,0,1-.454-.568l1.046-.836a.363.363,0,0,1,.454,0l1.046.836a.363.363,0,0,1-.227.647Z" fill="#95d6a4"/>
          </g>
        </g>
      </g>
    </g>
  </g>
</svg>
