<svg xmlns="http://www.w3.org/2000/svg" xmlns:xlink="http://www.w3.org/1999/xlink" width="25" height="25" viewBox="0 0 25 25">
  <defs>
    <clipPath id="clip-path">
      <rect id="Rectangle_2297" data-name="Rectangle 2297" width="25" height="25" fill="#bfc0c5" stroke="#707070" stroke-width="1"/>
    </clipPath>
  </defs>
  <g id="new" clip-path="url(#clip-path)">
    <g id="stock">
      <path id="Path_5938" data-name="Path 5938" d="M.732,14.648H2.979V7.324H.732a.732.732,0,0,1,0-1.465H2.979V.732a.732.732,0,0,1,1.465,0V5.859H5.908V.732A.732.732,0,0,1,6.641,0H18.359a.732.732,0,0,1,.732.732V5.859h1.514V.732a.732.732,0,0,1,1.465,0V5.859h2.2a.732.732,0,0,1,0,1.465h-2.2v7.324h2.2a.732.732,0,0,1,0,1.465h-2.2v8.105a.732.732,0,0,1-1.465,0V16.113H4.443v8.105a.732.732,0,0,1-1.465,0V16.113H.732a.732.732,0,0,1,0-1.465ZM7.373,5.859h4.395V1.465H10.3v.781a.732.732,0,0,1-1.465,0V1.465H7.373ZM17.627,1.465H16.162v.781a.732.732,0,0,1-1.465,0V1.465H13.232V5.859h4.395ZM14.7,14.648V10.254H13.232v.781a.732.732,0,0,1-1.465,0v-.781H10.3v4.395Zm-5.859,0V9.521a.732.732,0,0,1,.732-.732H15.43a.732.732,0,0,1,.732.732v5.127h4.443V7.324H4.443v7.324Z" fill="#bfc0c5"/>
      <path id="Path_5939" data-name="Path 5939" d="M6.641,17.676H18.359a.732.732,0,0,1,.732.732v5.859a.732.732,0,0,1-.732.732H6.641a.732.732,0,0,1-.732-.732V18.408A.732.732,0,0,1,6.641,17.676Zm10.986,1.465H16.162v.684a.732.732,0,0,1-1.465,0v-.684H13.232v4.395h4.395ZM7.373,23.535h4.395V19.141H10.3v.684a.732.732,0,0,1-1.465,0v-.684H7.373Z" fill="#bfc0c5"/>
    </g>
  </g>
</svg>
