<svg xmlns="http://www.w3.org/2000/svg" xmlns:xlink="http://www.w3.org/1999/xlink" width="40" height="40" viewBox="0 0 40 40">
  <defs>
    <clipPath id="clip-path">
      <rect id="Rectangle_7" data-name="Rectangle 7" width="21" height="19" transform="translate(69.125 15)" fill="#242424" stroke="#707070" stroke-width="1"/>
    </clipPath>
  </defs>
  <g id="point" transform="translate(-59.503 -4)">
    <path id="Path_5869" data-name="Path 5869" d="M5,0H35a5,5,0,0,1,5,5V35a5,5,0,0,1-5,5H5a5,5,0,0,1-5-5V5A5,5,0,0,1,5,0Z" transform="translate(59.503 4)" fill="#b0afaf"/>
    <g id="Mask_Group_204" data-name="Mask Group 204" clip-path="url(#clip-path)">
      <g id="euro" transform="translate(69.47 14.344)">
        <path id="Path_6374" data-name="Path 6374" d="M2.091,8.825a1.33,1.33,0,0,0,0,2.661H5.06a8.315,8.315,0,0,1,.862-2.661H2.091Z" fill="#242424"/>
        <path id="Path_6375" data-name="Path 6375" d="M10.721,4.74H5.32a1.33,1.33,0,0,0,0,2.661H6.863A8.411,8.411,0,0,1,10.721,4.74Z" fill="#242424"/>
        <path id="Path_6376" data-name="Path 6376" d="M15.986,4.74a8.4,8.4,0,0,1,3.547,2.3.737.737,0,0,0,.269-.367,2.1,2.1,0,0,0,.137-.617,1.332,1.332,0,0,0-1.33-1.317Z" fill="#242424"/>
        <path id="Path_6377" data-name="Path 6377" d="M1.33.656a1.33,1.33,0,0,0,0,2.661H14.619a1.33,1.33,0,0,0,0-2.661Z" fill="#242424"/>
        <path id="Path_6378" data-name="Path 6378" d="M4.975,12.91H2.091a1.33,1.33,0,0,0,0,2.661H5.479A8.335,8.335,0,0,1,4.975,12.91Z" fill="#242424"/>
        <path id="Path_6379" data-name="Path 6379" d="M2.091,19.656H8.685A8.447,8.447,0,0,1,6.16,16.995H2.091a1.33,1.33,0,1,0,0,2.661Z" fill="#242424"/>
        <path id="Path_6380" data-name="Path 6380" d="M20.311,12.7a6.958,6.958,0,1,0-6.958,6.958A6.965,6.965,0,0,0,20.311,12.7Zm-9.856.731H9.894a.712.712,0,0,1,0-1.424h.561a4.141,4.141,0,0,1,4.073-3.423.712.712,0,0,1,0,1.424,2.715,2.715,0,0,0-2.615,2h2.615a.712.712,0,0,1,0,1.424H11.913a2.715,2.715,0,0,0,2.615,2,.712.712,0,1,1,0,1.424A4.141,4.141,0,0,1,10.455,13.429Z" fill="#242424"/>
      </g>
    </g>
  </g>
</svg>
