<svg xmlns="http://www.w3.org/2000/svg" xmlns:xlink="http://www.w3.org/1999/xlink" width="20" height="20" viewBox="0 0 20 20">
  <defs>
    <clipPath id="clip-path">
      <rect id="Rectangle_694" data-name="Rectangle 694" width="20" height="20" transform="translate(3 3)" fill="#707070" stroke="#707070" stroke-width="1"/>
    </clipPath>
  </defs>
  <g id="Mask_Group_32" data-name="Mask Group 32" transform="translate(-3 -3)" clip-path="url(#clip-path)">
    <path id="box_1_" data-name="box (1)" d="M18.9,13.554H17.256V7.476a.57.57,0,0,0-.57-.57H13.8V.827a.57.57,0,0,0-.57-.57H6.311a.57.57,0,0,0-.57.57V6.905H2.852a.57.57,0,0,0-.57.57v6.078H.57a.57.57,0,0,0-.57.57v2.307A.57.57,0,0,0,.57,17h.52v1.723a.57.57,0,0,0,.57.57H4.955a.57.57,0,0,0,.57-.57V17H7.55v1.723a.57.57,0,0,0,.57.57h3.293a.57.57,0,0,0,.57-.57V17h1.885v1.723a.57.57,0,0,0,.57.57h3.293a.57.57,0,0,0,.57-.57V17h.6a.57.57,0,0,0,.57-.57V14.124A.57.57,0,0,0,18.9,13.554Zm-2.788,0H10.339V8.046H11.49V9.58a.57.57,0,0,0,.57.57h2.333a.57.57,0,0,0,.57-.57V8.046h1.151ZM13.824,9.01H12.631V8.046h1.193ZM10.365,1.4v.964H9.173V1.4Zm-3.484,0H8.032V2.932a.57.57,0,0,0,.57.57h2.333a.57.57,0,0,0,.57-.57V1.4h1.151V6.905H6.881Zm.026,6.649V9.01H5.714V8.046Zm-3.484,0H4.574V9.58a.57.57,0,0,0,.57.57H7.477a.57.57,0,0,0,.57-.57V8.046H9.2v5.508H3.423Zm.962,10.109H2.232V17H4.384Zm6.459,0H8.69V17h2.153Zm6.319,0H15.009V17h2.153Zm1.171-2.294c-5.557,0-11.641,0-17.192,0V14.695H18.333Z" transform="translate(3 2.961)" fill="#707070"/>
  </g>
</svg>
