<svg xmlns="http://www.w3.org/2000/svg" xmlns:xlink="http://www.w3.org/1999/xlink" width="14" height="17" viewBox="0 0 14 17">
  <defs>
    <clipPath id="clip-path">
      <rect id="Rectangle_2302" data-name="Rectangle 2302" width="14" height="17" fill="#ff5f74" stroke="#707070" stroke-width="1"/>
    </clipPath>
  </defs>
  <g id="recir" clip-path="url(#clip-path)">
    <g id="refresh-button" transform="translate(-0.494 1.006)">
      <g id="Group_4374" data-name="Group 4374">
        <path id="Path_6084" data-name="Path 6084" d="M1.7,6.264a1.2,1.2,0,0,0,1.1-.734A5.09,5.09,0,0,1,7.494,2.4a5.02,5.02,0,0,1,3.083,1.06l-.67.1a.523.523,0,0,0-.134.993l3.684,1.657a.523.523,0,0,0,.737-.474l.019-4.059a.523.523,0,0,0-.958-.292l-.508.763A7.486,7.486,0,0,0,.59,4.585,1.208,1.208,0,0,0,1.7,6.264Z" fill="#ff5f74"/>
        <path id="Path_6085" data-name="Path 6085" d="M14.293,9.265a1.2,1.2,0,0,0-2.11.193,5.09,5.09,0,0,1-4.689,3.126,5.02,5.02,0,0,1-3.083-1.06l.67-.1a.523.523,0,0,0,.134-.993L1.531,8.77a.523.523,0,0,0-.737.474L.775,13.3a.522.522,0,0,0,.958.292l.508-.763A7.486,7.486,0,0,0,14.4,10.4,1.207,1.207,0,0,0,14.293,9.265Z" fill="#ff5f74"/>
      </g>
    </g>
  </g>
</svg>
