<svg xmlns="http://www.w3.org/2000/svg" xmlns:xlink="http://www.w3.org/1999/xlink" width="182" height="139" viewBox="0 0 182 139">
  <defs>
    <clipPath id="clip-path">
      <rect id="Rectangle_684" data-name="Rectangle 684" width="182" height="139" transform="translate(503 466)" fill="#fff" stroke="#707070" stroke-width="1"/>
    </clipPath>
  </defs>
  <g id="Mask_Group_184" data-name="Mask Group 184" transform="translate(-503 -466)" clip-path="url(#clip-path)">
    <g id="return" transform="translate(503 468.146)">
      <path id="Path_6103" data-name="Path 6103" d="M135.137,157.536a5.111,5.111,0,0,1-5.111,5.111H5.111A5.111,5.111,0,0,1,0,157.536V32.193a4.683,4.683,0,0,1,4.683-4.683h125.77a4.684,4.684,0,0,1,4.683,4.683Z" transform="translate(0 -27.509)" fill="#ffd064"/>
      <path id="Path_6104" data-name="Path 6104" d="M150.869,27.509h-9.684a4.684,4.684,0,0,1,4.683,4.683V162.647h4.573a5.111,5.111,0,0,0,5.111-5.111V32.193a4.683,4.683,0,0,0-4.683-4.683Z" transform="translate(-20.415 -27.509)" fill="#ffc250"/>
      <g id="Group_4381" data-name="Group 4381" transform="translate(88.859 80.2)">
        <path id="Path_6105" data-name="Path 6105" d="M117.859,156.676a8.435,8.435,0,0,1-11.928-.161l-1.847-1.9a.721.721,0,0,1,.014-1.019l13.268-12.915a.72.72,0,0,0,0-1.033L104.1,126.735a.721.721,0,0,1-.014-1.019l1.847-1.9a8.435,8.435,0,0,1,11.928-.161L130.4,135.869a6.049,6.049,0,0,1,1.491,2.243,5.914,5.914,0,0,1-1.42,6.284Z" transform="translate(-103.88 -121.267)" fill="#f9f6f6"/>
      </g>
      <path id="Path_6106" data-name="Path 6106" d="M85.436,49.738H68.787A2.79,2.79,0,0,1,66,46.948V27.509H88.226V46.948A2.79,2.79,0,0,1,85.436,49.738Z" transform="translate(-9.543 -27.509)" fill="#26457d"/>
      <path id="Path_6107" data-name="Path 6107" d="M82.038,27.509V46.948a2.79,2.79,0,0,1-2.79,2.79h8.1a2.79,2.79,0,0,0,2.79-2.79V27.509Z" transform="translate(-11.459 -27.509)" fill="#21386b"/>
      <g id="Group_4384" data-name="Group 4384" transform="translate(14.621 80.44)">
        <g id="Group_4382" data-name="Group 4382" transform="translate(8.787 3.354)">
          <path id="Path_6108" data-name="Path 6108" d="M30.112,151.794a2.747,2.747,0,0,1-2.748-2.748v-20.83a2.748,2.748,0,1,1,5.5,0v20.83A2.748,2.748,0,0,1,30.112,151.794Z" transform="translate(-27.364 -125.469)" fill="#26457d"/>
        </g>
        <g id="Group_4383" data-name="Group 4383">
          <path id="Path_6109" data-name="Path 6109" d="M37.413,135.721a2.737,2.737,0,0,1-1.931-.793l-6.856-6.771-6.856,6.771a2.747,2.747,0,1,1-3.861-3.909l8.787-8.678a2.747,2.747,0,0,1,3.861,0l8.787,8.678a2.747,2.747,0,0,1-1.931,4.7Z" transform="translate(-17.092 -121.548)" fill="#26457d"/>
        </g>
      </g>
      <g id="Group_4387" data-name="Group 4387" transform="translate(42.775 80.44)">
        <g id="Group_4385" data-name="Group 4385" transform="translate(8.787 3.354)">
          <path id="Path_6110" data-name="Path 6110" d="M63.025,151.794a2.747,2.747,0,0,1-2.748-2.748v-20.83a2.748,2.748,0,1,1,5.5,0v20.83A2.748,2.748,0,0,1,63.025,151.794Z" transform="translate(-60.278 -125.469)" fill="#26457d"/>
        </g>
        <g id="Group_4386" data-name="Group 4386">
          <path id="Path_6111" data-name="Path 6111" d="M52.753,135.721a2.747,2.747,0,0,1-1.931-4.7l8.787-8.678a2.748,2.748,0,0,1,3.861,0l8.787,8.678a2.747,2.747,0,1,1-3.861,3.909l-6.856-6.771-6.856,6.771a2.738,2.738,0,0,1-1.931.793Z" transform="translate(-50.006 -121.548)" fill="#26457d"/>
        </g>
      </g>
      <g id="Group_4388" data-name="Group 4388" transform="translate(23.407 117.274)">
        <path id="Path_6112" data-name="Path 6112" d="M58.266,170.1H30.112a2.748,2.748,0,0,1,0-5.5H58.266a2.748,2.748,0,0,1,0,5.5Z" transform="translate(-27.364 -164.607)" fill="#26457d"/>
      </g>
      <path id="Path_6113" data-name="Path 6113" d="M150.521,61.575h-40.9a1.822,1.822,0,0,1-1.822-1.822v-8.3a.924.924,0,0,0-1.566-.665L82.469,73.718a1.6,1.6,0,0,0,0,2.3l23.762,22.935a.924.924,0,0,0,1.566-.665V89.958a1.822,1.822,0,0,1,1.822-1.822H150.7a16.738,16.738,0,0,1,16.79,16.787,16.519,16.519,0,0,1-16.5,16.213h-4V147.7h4a43.108,43.108,0,0,0,43.059-43.312C193.917,80.623,174.282,61.575,150.521,61.575Z" transform="translate(-11.855 -30.837)" fill="#95d6a4"/>
      <g id="Group_4389" data-name="Group 4389" transform="translate(135.137 89.934)">
        <path id="Path_6114" data-name="Path 6114" d="M165.424,159.432V132.646a16.505,16.505,0,0,1-3.44.364h-4v26.56h4q1.737,0,3.44-.137Z" transform="translate(-157.981 -132.646)" fill="#78c2a4"/>
      </g>
      <g id="Group_4390" data-name="Group 4390" transform="translate(129.483 30.738)">
        <path id="Path_6115" data-name="Path 6115" d="M160.555,63.443h-9.184c23.761,0,43.4,19.047,43.533,42.808a43.121,43.121,0,0,1-37.878,43v.313h4a43.108,43.108,0,0,0,43.059-43.312C203.951,82.491,184.316,63.443,160.555,63.443Z" transform="translate(-151.371 -63.443)" fill="#78c2a4"/>
      </g>
    </g>
  </g>
</svg>
