<svg xmlns="http://www.w3.org/2000/svg" xmlns:xlink="http://www.w3.org/1999/xlink" width="40" height="40" viewBox="0 0 40 40">
  <defs>
    <clipPath id="clip-path">
      <rect id="Rectangle_7" data-name="Rectangle 7" width="21" height="19" transform="translate(69.125 15)" fill="#242424" stroke="#707070" stroke-width="1"/>
    </clipPath>
  </defs>
  <g id="report" transform="translate(-59.503 -4)">
    <rect id="Rectangle_6" data-name="Rectangle 6" width="40" height="40" rx="5" transform="translate(59.503 4)" fill="#b0afaf"/>
    <g id="Mask_Group_128" data-name="Mask Group 128" clip-path="url(#clip-path)">
      <g id="strategic-plan" transform="translate(70.125 15)">
        <path id="Path_5859" data-name="Path 5859" d="M10.63,0H8.37A1.653,1.653,0,0,0,6.719,1.674l5.562,0A1.653,1.653,0,0,0,10.63,0Z" fill="#242424"/>
        <path id="Path_5860" data-name="Path 5860" d="M5.605,5.6H6.7V6.7H5.605Z" fill="#242424"/>
        <path id="Path_5861" data-name="Path 5861" d="M5.605,14.538H6.7v1.095H5.605Z" fill="#242424"/>
        <path id="Path_5862" data-name="Path 5862" d="M5.605,10.066H6.7v1.095H5.605Z" fill="#242424"/>
        <path id="Path_5863" data-name="Path 5863" d="M15.434,1.109l-2.267,0a2.749,2.749,0,0,1,.227,1.1.557.557,0,0,1-.557.557H6.162a.557.557,0,0,1-.557-.557,2.749,2.749,0,0,1,.227-1.1l-2.269,0a1.3,1.3,0,0,0-1.3,1.3V17.7a1.3,1.3,0,0,0,1.3,1.3H15.437a1.3,1.3,0,0,0,1.3-1.3V2.408a1.3,1.3,0,0,0-1.3-1.3ZM7.813,16.189a.557.557,0,0,1-.557.557H5.049a.557.557,0,0,1-.557-.557V13.981a.557.557,0,0,1,.557-.557H7.257a.557.557,0,0,1,.557.557Zm0-4.472a.557.557,0,0,1-.557.557H5.049a.557.557,0,0,1-.557-.557V9.509a.557.557,0,0,1,.557-.557H7.257a.557.557,0,0,1,.557.557Zm0-4.462a.557.557,0,0,1-.557.557H5.049a.557.557,0,0,1-.557-.557V5.047a.557.557,0,0,1,.557-.557H7.257a.557.557,0,0,1,.557.557Zm5.026,9.491H9.5a.557.557,0,0,1,0-1.113h3.34a.557.557,0,0,1,0,1.113Zm1.111-2.208H9.5a.557.557,0,0,1,0-1.113h4.451a.557.557,0,0,1,0,1.113Zm-5.008-2.82a.557.557,0,0,1,.557-.557h3.34a.557.557,0,0,1,0,1.113H9.5a.557.557,0,0,1-.557-.557Zm5.008-1.651H9.5a.557.557,0,0,1,0-1.113h4.451a.557.557,0,0,1,0,1.113ZM8.943,7.255A.557.557,0,0,1,9.5,6.7h3.34a.557.557,0,0,1,0,1.113H9.5a.557.557,0,0,1-.557-.557ZM13.951,5.6H9.5a.557.557,0,0,1,0-1.113h4.451a.557.557,0,0,1,0,1.113Z" fill="#242424"/>
      </g>
    </g>
  </g>
</svg>
