<svg xmlns="http://www.w3.org/2000/svg" xmlns:xlink="http://www.w3.org/1999/xlink" width="30" height="30" viewBox="0 0 30 30">
  <defs>
    <clipPath id="clip-path">
      <rect id="Rectangle_2285" data-name="Rectangle 2285" width="30" height="30" transform="translate(1510 190)" fill="#fff" stroke="#707070" stroke-width="1"/>
    </clipPath>
  </defs>
  <g id="requests" transform="translate(-1510 -190)" clip-path="url(#clip-path)">
    <g id="requests-2" data-name="requests" transform="translate(1510 190)">
      <path id="Path_6086" data-name="Path 6086" d="M21.094,22.031v7.09a.879.879,0,0,1-.879.879H.879A.879.879,0,0,1,0,29.121v-7.09a6.159,6.159,0,0,1,6.107-6.152h8.834A6.159,6.159,0,0,1,21.094,22.031Z" fill="#1c9ae8"/>
      <path id="Path_6087" data-name="Path 6087" d="M16.816,30h-6.27V15.879h4.395a6.137,6.137,0,0,1,4.581,2.051H16.816a.587.587,0,0,0-.586.586V29.121a.587.587,0,0,0,.586.586Z" fill="#2275c7"/>
      <path id="Path_6088" data-name="Path 6088" d="M30,18.516V29.121a.879.879,0,0,1-.879.879h-12.3a.879.879,0,0,1-.879-.879V18.516a.879.879,0,0,1,.879-.879h3.516l2.637.586,2.637-.586h3.516A.879.879,0,0,1,30,18.516Z" fill="#c4a27a"/>
      <path id="Path_6089" data-name="Path 6089" d="M30,18.516V29.121a.879.879,0,0,1-.879.879H22.969V18.223l2.637-.586h3.516A.879.879,0,0,1,30,18.516Z" fill="#9b7c5d"/>
      <path id="Path_6090" data-name="Path 6090" d="M25.605,17.637v4.395a.879.879,0,0,1-.879.879H21.211a.879.879,0,0,1-.879-.879V17.637Z" fill="#9b7c5d"/>
      <path id="Path_6091" data-name="Path 6091" d="M25.605,17.637v4.395a.879.879,0,0,1-.879.879H22.969V17.637Z" fill="#7a6047"/>
      <path id="Path_6092" data-name="Path 6092" d="M7.91,14.634v2.124a2.637,2.637,0,0,0,5.273,0V14.649Z" fill="#fbcdbe"/>
      <path id="Path_6093" data-name="Path 6093" d="M13.184,14.649v2.109a2.637,2.637,0,0,1-2.637,2.637V14.641Z" fill="#fdbbab"/>
      <path id="Path_6094" data-name="Path 6094" d="M5.273,23.789V30H3.516V23.789a.879.879,0,1,1,1.758,0Z" fill="#2275c7"/>
      <path id="Path_6095" data-name="Path 6095" d="M7.91,24.668h5.273a.879.879,0,1,0,0-1.758H7.91a.879.879,0,1,0,0,1.758Z" fill="#2275c7"/>
      <path id="Path_6096" data-name="Path 6096" d="M14.063,23.789a.879.879,0,0,1-.879.879H10.547V22.91h2.637A.879.879,0,0,1,14.063,23.789Z" fill="#0757a1"/>
      <path id="Path_6097" data-name="Path 6097" d="M13.184,26.426H7.91a.879.879,0,1,0,0,1.758h5.273a.879.879,0,1,0,0-1.758Z" fill="#2275c7"/>
      <path id="Path_6098" data-name="Path 6098" d="M14.063,27.3a.879.879,0,0,1-.879.879H10.547V26.426h2.637A.879.879,0,0,1,14.063,27.3Z" fill="#0757a1"/>
      <path id="Path_6099" data-name="Path 6099" d="M18.384,9.75a1.642,1.642,0,0,0-1.638-1.642H16.7V6.22a6.153,6.153,0,1,0-12.3-.068V8.119h-.12A1.642,1.642,0,0,0,2.637,9.761h0A1.642,1.642,0,0,0,4.279,11.4h.348a6.154,6.154,0,0,0,11.844-.012h.273A1.642,1.642,0,0,0,18.384,9.75Z" fill="#fddbcc"/>
      <path id="Path_6100" data-name="Path 6100" d="M18.384,9.75a1.641,1.641,0,0,1-1.642,1.642H16.47a6.156,6.156,0,0,1-5.923,4.487V0h.036A6.2,6.2,0,0,1,16.7,6.22V8.108h.047A1.642,1.642,0,0,1,18.384,9.75Z" fill="#fbcdbe"/>
      <path id="Path_6101" data-name="Path 6101" d="M16.7,6.22V8.108c-2.619-4.134-8.414,2.048-12.315.011h.011V6.152a6.153,6.153,0,1,1,12.3.067Z" fill="#5b5555"/>
      <path id="Path_6102" data-name="Path 6102" d="M16.7,6.22V8.108c-1.4-2.211-3.71-1.471-6.152-.616V0h.036A6.2,6.2,0,0,1,16.7,6.22Z" fill="#463f3f"/>
    </g>
  </g>
</svg>
