<svg xmlns="http://www.w3.org/2000/svg" xmlns:xlink="http://www.w3.org/1999/xlink" width="25" height="25" viewBox="0 0 25 25">
  <defs>
    <clipPath id="clip-path">
      <rect id="Rectangle_2297" data-name="Rectangle 2297" width="25" height="25" fill="#bfc0c5" stroke="#707070" stroke-width="1"/>
    </clipPath>
  </defs>
  <g id="road" clip-path="url(#clip-path)">
    <g id="delivery-truck" transform="translate(0 2.954)">
      <path id="Path_5959" data-name="Path 5959" d="M0,18.267c.33-3.555.187-2.015.457-4.921a8.872,8.872,0,0,1,8.155-7.96l.177-1.773a.735.735,0,0,1,.771-.66h14.7A.733.733,0,0,1,25,3.759L23.531,18.408a.732.732,0,0,1-.729.66H21.113a2.8,2.8,0,1,1-5.595,0H7.8a2.8,2.8,0,1,1-5.593,0H.732a.733.733,0,0,1-.729-.8Zm2.039-5.576H4.929l.521-4.8A7.377,7.377,0,0,0,2.042,12.691Zm16.273,7.89a1.339,1.339,0,1,0-.947-2.286A1.338,1.338,0,0,0,18.315,20.581ZM20.59,17.6h1.55L23.458,4.419H10.184c0,.04-.046.458-1.318,13.184h7.175A2.806,2.806,0,0,1,20.59,17.6ZM5,20.581a1.339,1.339,0,1,0-.947-2.286A1.342,1.342,0,0,0,5,20.581ZM2.729,17.6a2.806,2.806,0,0,1,4.549,0h.115L8.467,6.871A7.411,7.411,0,0,0,7,7.183L6.314,13.5a.732.732,0,0,1-.728.653H1.856L1.536,17.6Z" transform="translate(0 -2.954)" fill="#bfc0c5"/>
      <path id="Path_5960" data-name="Path 5960" d="M7.084,7.5a.733.733,0,0,1,1.22.62l-.069.656h5.046a.733.733,0,0,1,.728.81l-.313,2.93a.732.732,0,0,1-.728.655h-5.2l-.085.808a.733.733,0,0,1-1.274.412L3.79,11.462a.732.732,0,0,1,.054-1.031Zm-.667,4.7a.733.733,0,0,1,.693-.5h5.2l.156-1.465H7.421a.732.732,0,0,1-.678-.456L5.368,11.028Z" transform="translate(7.383 -2.954)" fill="#bfc0c5"/>
    </g>
  </g>
</svg>
