<svg id="set-img" xmlns="http://www.w3.org/2000/svg" xmlns:xlink="http://www.w3.org/1999/xlink" width="243" height="243" viewBox="0 0 243 243">
  <defs>
    <clipPath id="clip-path">
      <rect id="Rectangle_2432" data-name="Rectangle 2432" width="124" height="125" transform="translate(0)" fill="#fbd46d" stroke="#707070" stroke-width="1"/>
    </clipPath>
  </defs>
  <g id="Ellipse_96" data-name="Ellipse 96" fill="#fdf8ca" stroke="#fbd46d" stroke-width="4">
    <circle cx="121.5" cy="121.5" r="121.5" stroke="none"/>
    <circle cx="121.5" cy="121.5" r="119.5" fill="none"/>
  </g>
  <g id="Mask_Group_227" data-name="Mask Group 227" transform="translate(59.999 60)" clip-path="url(#clip-path)">
    <g id="picture" transform="translate(-0.239 17.364)">
      <g id="Group_4644" data-name="Group 4644" transform="translate(0 0)">
        <g id="Group_4643" data-name="Group 4643">
          <path id="Path_6528" data-name="Path 6528" d="M112.267,28.714h-98.8A13.472,13.472,0,0,0,0,42.186v62.87a13.472,13.472,0,0,0,13.472,13.472h98.8a13.472,13.472,0,0,0,13.472-13.472V42.186A13.472,13.472,0,0,0,112.267,28.714Zm4.491,76.342a4.491,4.491,0,0,1-4.491,4.491h-98.8a4.491,4.491,0,0,1-4.491-4.491v-2.632L26.944,84.462,41.732,99.25a4.49,4.49,0,0,0,6.35,0L85.323,62.008l31.435,31.435v11.613Zm0-24.313L88.5,52.484a4.49,4.49,0,0,0-6.35,0L44.907,89.725,30.119,74.937a4.49,4.49,0,0,0-6.35,0L8.981,89.725V42.186A4.491,4.491,0,0,1,13.472,37.7h98.8a4.491,4.491,0,0,1,4.491,4.491V80.743Z" transform="translate(0 -28.714)" fill="#fbd46d"/>
        </g>
      </g>
      <g id="Group_4646" data-name="Group 4646" transform="translate(26.944 17.963)">
        <g id="Group_4645" data-name="Group 4645">
          <path id="Path_6529" data-name="Path 6529" d="M56.543,57.428A13.472,13.472,0,1,0,70.016,70.9,13.472,13.472,0,0,0,56.543,57.428Zm0,17.963A4.491,4.491,0,1,1,61.034,70.9,4.491,4.491,0,0,1,56.543,75.391Z" transform="translate(-43.071 -57.428)" fill="#fbd46d"/>
        </g>
      </g>
    </g>
  </g>
</svg>
