<svg xmlns="http://www.w3.org/2000/svg" xmlns:xlink="http://www.w3.org/1999/xlink" width="30" height="30" viewBox="0 0 30 30">
  <defs>
    <clipPath id="clip-path">
      <rect id="Rectangle_2285" data-name="Rectangle 2285" width="30" height="30" transform="translate(1510 190)" fill="#fff" stroke="#707070" stroke-width="1"/>
    </clipPath>
  </defs>
  <g id="setting" transform="translate(-1510 -190)" clip-path="url(#clip-path)">
    <g id="admin" transform="translate(1510 190)">
      <g id="Group_4638" data-name="Group 4638">
        <g id="Group_4637" data-name="Group 4637">
          <g id="Group_4636" data-name="Group 4636">
            <g id="Group_4635" data-name="Group 4635">
              <path id="Path_6522" data-name="Path 6522" d="M29.331,11.51l-2.755-.676c-.13-.357-.28-.714-.449-1.069l1.435-2.392A.878.878,0,0,0,27.429,6.3L23.7,2.571a.878.878,0,0,0-1.073-.132L20.235,3.873c-.354-.169-.712-.319-1.069-.449L18.49.669A.879.879,0,0,0,17.637,0H12.363a.879.879,0,0,0-.854.669l-.676,2.755c-.357.13-.714.28-1.069.449L7.373,2.438A.879.879,0,0,0,6.3,2.571L2.571,6.3a.878.878,0,0,0-.132,1.073L3.873,9.765c-.169.354-.319.712-.449,1.069L.669,11.51A.879.879,0,0,0,0,12.363v5.273a.879.879,0,0,0,.669.854l2.755.676c.13.357.28.714.449,1.069L2.438,22.627A.878.878,0,0,0,2.571,23.7L6.3,27.429a.879.879,0,0,0,1.073.132l2.392-1.435c.354.169.712.319,1.069.449l.651,2.653.025.1a.879.879,0,0,0,.854.669l2.813-2.812L17.637,30a.879.879,0,0,0,.854-.669l.025-.1.651-2.653c.357-.13.714-.28,1.069-.449l2.392,1.435a.879.879,0,0,0,1.073-.132L27.429,23.7a.878.878,0,0,0,.132-1.073l-1.435-2.392c.169-.354.319-.712.449-1.069l2.755-.676A.879.879,0,0,0,30,17.637V12.363a.879.879,0,0,0-.669-.854Z" fill="#6b8bfd"/>
            </g>
          </g>
        </g>
      </g>
      <path id="Path_6523" data-name="Path 6523" d="M29.331,11.51l-2.755-.676c-.13-.357-.28-.714-.449-1.069l1.435-2.392A.878.878,0,0,0,27.429,6.3L23.7,2.571a.878.878,0,0,0-1.073-.132L20.235,3.873c-.354-.169-.712-.319-1.069-.449L18.49.669A.879.879,0,0,0,17.637,0H15V27.363l.176-.176L17.637,30a.879.879,0,0,0,.854-.669l.025-.1.651-2.653c.357-.13.714-.28,1.069-.449l2.392,1.435a.879.879,0,0,0,1.073-.132L27.429,23.7a.878.878,0,0,0,.132-1.073l-1.435-2.392c.169-.354.319-.712.449-1.069l2.755-.676A.879.879,0,0,0,30,17.637V12.363a.879.879,0,0,0-.669-.854Z" fill="#2e4dd4"/>
      <g id="Group_4640" data-name="Group 4640">
        <g id="Group_4639" data-name="Group 4639">
          <path id="Path_6524" data-name="Path 6524" d="M17.637,20.64H12.363a.879.879,0,0,0-.879.879v7.71l.025.1a.879.879,0,0,0,.854.669h5.273a.879.879,0,0,0,.854-.669l.025-.1v-7.71A.879.879,0,0,0,17.637,20.64Z" fill="#fabe2c"/>
        </g>
      </g>
      <path id="Path_6525" data-name="Path 6525" d="M17.637,20.64H15V30h2.637a.879.879,0,0,0,.854-.669l.025-.1v-7.71A.879.879,0,0,0,17.637,20.64Z" fill="#ff9f00"/>
      <g id="Admin_1_">
        <g id="Group_4642" data-name="Group 4642">
          <g id="Group_4641" data-name="Group 4641">
            <path id="Path_6526" data-name="Path 6526" d="M15,22.91A7.911,7.911,0,0,1,12.033,7.667a.879.879,0,0,1,1.21.814V14.53L15,15.7l1.758-1.172V8.482a.879.879,0,0,1,1.21-.814A7.91,7.91,0,0,1,15,22.91ZM17.637,15h0Z" fill="#fdd929"/>
          </g>
        </g>
      </g>
      <path id="Path_6527" data-name="Path 6527" d="M22.91,15a7.922,7.922,0,0,0-4.943-7.333.879.879,0,0,0-1.21.814V14.53L15,15.7V22.91A7.919,7.919,0,0,0,22.91,15Z" fill="#fabe2c"/>
    </g>
  </g>
</svg>
