<svg xmlns="http://www.w3.org/2000/svg" xmlns:xlink="http://www.w3.org/1999/xlink" width="40" height="40" viewBox="0 0 40 40">
  <defs>
    <clipPath id="clip-path">
      <rect id="Rectangle_7" data-name="Rectangle 7" width="21" height="19" transform="translate(69.125 15)" fill="#242424" stroke="#707070" stroke-width="1"/>
    </clipPath>
  </defs>
  <g id="sett" transform="translate(-59.503 -4)">
    <rect id="Rectangle_6" data-name="Rectangle 6" width="40" height="40" rx="5" transform="translate(59.503 4)" fill="#f1f3f8"/>
    <g id="Mask_Group_125" data-name="Mask Group 125" clip-path="url(#clip-path)">
      <path id="gear_1_" data-name="gear (1)" d="M18.553,7.337l-1.46-.317a7.947,7.947,0,0,0-.47-1.133l.808-1.258a.568.568,0,0,0-.076-.708L15.08,1.645a.568.568,0,0,0-.708-.076l-1.258.808a7.948,7.948,0,0,0-1.133-.47L11.663.447A.568.568,0,0,0,11.109,0H7.891a.568.568,0,0,0-.555.447l-.317,1.46a7.947,7.947,0,0,0-1.133.47L4.628,1.569a.568.568,0,0,0-.708.076L1.645,3.92a.568.568,0,0,0-.076.708l.808,1.258a7.948,7.948,0,0,0-.47,1.133l-1.46.317A.568.568,0,0,0,0,7.891v3.217a.568.568,0,0,0,.447.555l1.46.317a7.947,7.947,0,0,0,.47,1.133l-.808,1.258a.568.568,0,0,0,.076.708L3.92,17.355a.568.568,0,0,0,.708.076l1.258-.808a7.948,7.948,0,0,0,1.133.47l.317,1.46A.568.568,0,0,0,7.891,19h3.217a.568.568,0,0,0,.555-.447l.317-1.46a7.947,7.947,0,0,0,1.133-.47l1.258.808a.568.568,0,0,0,.708-.076l2.275-2.275a.568.568,0,0,0,.076-.708l-.808-1.258a7.948,7.948,0,0,0,.47-1.133l1.46-.317A.568.568,0,0,0,19,11.109V7.891A.568.568,0,0,0,18.553,7.337ZM12.906,9.5A3.406,3.406,0,1,1,9.5,6.094,3.41,3.41,0,0,1,12.906,9.5Zm0,0" transform="translate(70.125 15)" fill="#242424"/>
    </g>
  </g>
</svg>
