<svg xmlns="http://www.w3.org/2000/svg" xmlns:xlink="http://www.w3.org/1999/xlink" width="106" height="81" viewBox="0 0 106 81">
  <defs>
    <clipPath id="clip-path">
      <rect id="Rectangle_684" data-name="Rectangle 684" width="106" height="81" transform="translate(806 39)" fill="#fff" stroke="#707070" stroke-width="1"/>
    </clipPath>
  </defs>
  <g id="star" transform="translate(-806 -39)" clip-path="url(#clip-path)">
    <g id="flyers" transform="translate(812.194 32.694)">
      <path id="Path_6010" data-name="Path 6010" d="M92.251,42.354,55.074,85.372a5.59,5.59,0,0,1-7.885.574l-31.011-26.8A5.59,5.59,0,0,1,15.6,51.26L52.781,8.243a5.591,5.591,0,0,1,7.886-.576l31.011,26.8A5.59,5.59,0,0,1,92.251,42.354Z" fill="#e5e9ea"/>
      <path id="Path_6011" data-name="Path 6011" d="M92.251,42.354,69.881,68.238,30.411,34.127,52.781,8.243a5.591,5.591,0,0,1,7.886-.576l31.011,26.8A5.59,5.59,0,0,1,92.251,42.354Z" fill="#fcb65f"/>
      <path id="Path_6012" data-name="Path 6012" d="M73.445,29.337l-18.08,53.9a5.59,5.59,0,0,1-7.077,3.522L9.427,73.73A5.59,5.59,0,0,1,5.9,66.653l18.08-53.9a5.59,5.59,0,0,1,7.078-3.524l38.86,13.034A5.59,5.59,0,0,1,73.445,29.337Z" fill="#36a6ce"/>
      <g id="Group_4357" data-name="Group 4357">
        <path id="Path_6013" data-name="Path 6013" d="M73.445,29.337,62.566,61.772,13.106,45.183,23.985,12.747a5.59,5.59,0,0,1,7.078-3.524l38.86,13.034A5.591,5.591,0,0,1,73.445,29.337Z" fill="#e5e9ea"/>
        <path id="Path_6014" data-name="Path 6014" d="M52.168,24.309V81.165a5.59,5.59,0,0,1-5.59,5.59H5.59A5.59,5.59,0,0,1,0,81.165V24.309a5.59,5.59,0,0,1,5.59-5.592H46.578A5.59,5.59,0,0,1,52.168,24.309Z" fill="#e5e9ea"/>
      </g>
      <path id="Path_6015" data-name="Path 6015" d="M52.168,24.309V58.52H0V24.309a5.59,5.59,0,0,1,5.59-5.592H46.578A5.59,5.59,0,0,1,52.168,24.309Z" fill="#fa3f68"/>
      <g id="Group_4358" data-name="Group 4358">
        <path id="Path_6016" data-name="Path 6016" d="M40.605,68.208H11.563a1.442,1.442,0,1,1,0-2.884H40.605a1.442,1.442,0,0,1,0,2.884Z" fill="#566368"/>
        <path id="Path_6017" data-name="Path 6017" d="M40.605,73.721H11.563a1.442,1.442,0,1,1,0-2.884H40.605a1.442,1.442,0,0,1,0,2.884Z" fill="#566368"/>
        <path id="Path_6018" data-name="Path 6018" d="M40.605,79.234H11.563a1.442,1.442,0,1,1,0-2.884H40.605a1.442,1.442,0,0,1,0,2.884Z" fill="#566368"/>
      </g>
      <path id="Path_6019" data-name="Path 6019" d="M26.084,23.934,30.558,33l10,1.454L33.323,41.51l1.709,9.964-8.948-4.7-8.948,4.7,1.709-9.964-7.239-7.057L21.61,33Z" fill="#fcb65f"/>
    </g>
  </g>
</svg>
