<svg xmlns="http://www.w3.org/2000/svg" xmlns:xlink="http://www.w3.org/1999/xlink" width="25" height="25" viewBox="0 0 25 25">
  <defs>
    <clipPath id="clip-path">
      <rect id="Rectangle_2297" data-name="Rectangle 2297" width="25" height="25" fill="#bfc0c5" stroke="#707070" stroke-width="1"/>
    </clipPath>
  </defs>
  <g id="still" clip-path="url(#clip-path)">
    <g id="shipping-and-delivery" transform="translate(1.916 0)">
      <path id="Path_5937" data-name="Path 5937" d="M1.927,20.144a.732.732,0,0,1,.848-.594l.721.127L5.15,10.305A.733.733,0,0,1,6,9.711l3.611.636L10.5,5.3a.733.733,0,0,1,.848-.594l5.043.889.739-4.2A.732.732,0,0,1,17.725.8l4.5-.793a.732.732,0,1,1,.254,1.442l-3.994.7L15.27,20.423A2.929,2.929,0,1,1,9.926,22.3l-7.4-1.3a.732.732,0,0,1-.594-.848Zm3.012-.213,5.241.924a2.934,2.934,0,0,1,3.788-1.492l1.154-6.556-2.133-.376-.509,2.886a.733.733,0,0,1-.72.605c-.121,0-.008.006-3.043-.525a.733.733,0,0,1-.594-.848l.509-2.886-2.166-.382Zm5.135-8.014-.382,2.165,1.473.26.382-2.165-1.473-.26ZM14.7,6.786l-.127.721a.732.732,0,1,1-1.443-.254l.127-.721-1.443-.254L11.052,10.6l4.324.762.761-4.325ZM12.593,23.51a1.464,1.464,0,1,0-1.188-1.7A1.466,1.466,0,0,0,12.593,23.51Z" transform="translate(-1.916 0)" fill="#bfc0c5"/>
    </g>
  </g>
</svg>
