<svg xmlns="http://www.w3.org/2000/svg" xmlns:xlink="http://www.w3.org/1999/xlink" width="23" height="23" viewBox="0 0 23 23">
  <defs>
    <clipPath id="clip-path">
      <rect id="Rectangle_694" data-name="Rectangle 694" width="23" height="23" transform="translate(273.7 42)" fill="#2f3640" stroke="#707070" stroke-width="1"/>
    </clipPath>
  </defs>
  <g id="user" transform="translate(-273.7 -42)" clip-path="url(#clip-path)">
    <g id="user-2" data-name="user" transform="translate(275.605 42)">
      <path id="Path_6160" data-name="Path 6160" d="M9.449,11.079a5.36,5.36,0,0,0,3.917-1.623,5.361,5.361,0,0,0,1.623-3.917,5.361,5.361,0,0,0-1.623-3.917A5.361,5.361,0,0,0,9.449,0,5.36,5.36,0,0,0,5.533,1.623,5.36,5.36,0,0,0,3.91,5.539,5.361,5.361,0,0,0,5.533,9.456,5.362,5.362,0,0,0,9.449,11.079Zm-2.964-8.5A4,4,0,0,1,9.449,1.348a4,4,0,0,1,2.964,1.228,4.005,4.005,0,0,1,1.228,2.964A4,4,0,0,1,12.413,8.5,4,4,0,0,1,9.449,9.731,4.005,4.005,0,0,1,6.486,8.5,4,4,0,0,1,5.257,5.539,4,4,0,0,1,6.486,2.576Zm0,0" fill="#2f3640"/>
      <path id="Path_6161" data-name="Path 6161" d="M19.143,17.686a13.683,13.683,0,0,0-.186-1.453,11.45,11.45,0,0,0-.357-1.461,7.218,7.218,0,0,0-.6-1.363,5.137,5.137,0,0,0-.906-1.18,3.994,3.994,0,0,0-1.3-.818,4.5,4.5,0,0,0-1.661-.3,1.686,1.686,0,0,0-.9.382c-.27.176-.586.38-.938.6a5.374,5.374,0,0,1-1.214.535,4.713,4.713,0,0,1-2.969,0A5.358,5.358,0,0,1,6.9,12.1c-.349-.223-.665-.427-.939-.605a1.684,1.684,0,0,0-.9-.382,4.491,4.491,0,0,0-1.661.3,3.99,3.99,0,0,0-1.3.818,5.138,5.138,0,0,0-.905,1.18,7.231,7.231,0,0,0-.6,1.363,11.478,11.478,0,0,0-.357,1.461,13.59,13.59,0,0,0-.186,1.454c-.031.439-.046.9-.046,1.358a3.819,3.819,0,0,0,1.134,2.889A4.083,4.083,0,0,0,4.057,23H15.132a4.083,4.083,0,0,0,2.923-1.066,3.818,3.818,0,0,0,1.134-2.89c0-.463-.016-.921-.047-1.359Zm-2.017,3.272a2.749,2.749,0,0,1-1.994.695H4.057a2.749,2.749,0,0,1-1.994-.695,2.494,2.494,0,0,1-.716-1.913c0-.431.014-.857.043-1.265a12.258,12.258,0,0,1,.168-1.309,10.123,10.123,0,0,1,.314-1.288,5.887,5.887,0,0,1,.489-1.108,3.808,3.808,0,0,1,.666-.872,2.649,2.649,0,0,1,.866-.538,3.1,3.1,0,0,1,1.061-.2c.047.025.131.073.267.162.277.181.6.387.95.612a6.678,6.678,0,0,0,1.523.681,6.059,6.059,0,0,0,3.8,0,6.686,6.686,0,0,0,1.524-.681c.361-.231.672-.431.949-.612.136-.089.22-.137.267-.162a3.1,3.1,0,0,1,1.062.2,2.653,2.653,0,0,1,.865.538,3.8,3.8,0,0,1,.666.872,5.867,5.867,0,0,1,.489,1.108,10.1,10.1,0,0,1,.314,1.288A12.361,12.361,0,0,1,17.8,17.78h0c.029.407.043.832.043,1.264a2.494,2.494,0,0,1-.716,1.913Zm0,0" fill="#2f3640"/>
    </g>
  </g>
</svg>
