<svg xmlns="http://www.w3.org/2000/svg" xmlns:xlink="http://www.w3.org/1999/xlink" width="30" height="30" viewBox="0 0 30 30">
  <defs>
    <clipPath id="clip-path">
      <rect id="Rectangle_6717" data-name="Rectangle 6717" width="15" height="15" transform="translate(-147 1332)" fill="#fff" stroke="#707070" stroke-width="1"/>
    </clipPath>
  </defs>
  <g id="collage_" data-name="collage " transform="translate(155 -1324)">
    <rect id="Rectangle_6716" data-name="Rectangle 6716" width="30" height="30" rx="6" transform="translate(-155 1324)" fill="#f1f3f8"/>
    <g id="Mask_Group_1345" data-name="Mask Group 1345" clip-path="url(#clip-path)">
      <g id="graduation-hat" transform="translate(-147 1333.092)">
        <g id="Group_51505" data-name="Group 51505" transform="translate(0 0)">
          <g id="Group_51504" data-name="Group 51504">
            <path id="Path_15492" data-name="Path 15492" d="M15,10.253a1.316,1.316,0,0,0-.879-1.237V4.463L15,4.1,7.5,1.092,0,4.1,7.5,7.11l5.742-2.294v4.2a1.311,1.311,0,0,0-.126,2.423l-.73,2.191.833.278.462-1.387.462,1.387.833-.278-.73-2.191A1.316,1.316,0,0,0,15,10.253Z" transform="translate(0 -1.092)"/>
          </g>
        </g>
        <g id="Group_51507" data-name="Group 51507" transform="translate(3.545 5.377)">
          <g id="Group_51506" data-name="Group 51506">
            <path id="Path_15493" data-name="Path 15493" d="M7.5,8.057,3.545,6.469V7.617c0,1.253,1.7,2.2,3.955,2.2s3.955-.945,3.955-2.2V6.469Z" transform="translate(-3.545 -6.469)"/>
          </g>
        </g>
      </g>
    </g>
  </g>
</svg>
