<svg xmlns="http://www.w3.org/2000/svg" xmlns:xlink="http://www.w3.org/1999/xlink" width="30" height="30" viewBox="0 0 30 30">
  <defs>
    <clipPath id="clip-path">
      <rect id="Rectangle_6723" data-name="Rectangle 6723" width="13" height="13" transform="translate(-166 1220)" fill="#fff" stroke="#707070" stroke-width="1"/>
    </clipPath>
  </defs>
  <g id="setting_" data-name="setting " transform="translate(174 -1212)">
    <rect id="Rectangle_6722" data-name="Rectangle 6722" width="30" height="30" rx="6" transform="translate(-174 1212)" fill="#f1f3f8"/>
    <g id="Mask_Group_1343" data-name="Mask Group 1343" transform="translate(1 1)" clip-path="url(#clip-path)">
      <path id="settings_1_" data-name="settings (1)" d="M12.287,5.088l-1.018-.129a5.119,5.119,0,0,0-.308-.744l.629-.81a.805.805,0,0,0-.066-1.072L10.67,1.48a.807.807,0,0,0-1.075-.069l-.809.629a5.1,5.1,0,0,0-.745-.308L7.912.715A.811.811,0,0,0,7.107,0H5.893a.811.811,0,0,0-.8.713L4.959,1.732a5.041,5.041,0,0,0-.745.308L3.4,1.411a.806.806,0,0,0-1.072.066L1.48,2.33a.808.808,0,0,0-.069,1.076l.629.809a5.059,5.059,0,0,0-.308.744L.715,5.088a.811.811,0,0,0-.715.8V7.107a.811.811,0,0,0,.713.8l1.018.129a5.119,5.119,0,0,0,.308.744l-.629.81a.805.805,0,0,0,.066,1.072l.853.853a.808.808,0,0,0,1.075.068l.809-.629a5,5,0,0,0,.744.308l.129,1.016a.811.811,0,0,0,.8.716H7.107a.811.811,0,0,0,.8-.713l.129-1.018a5.119,5.119,0,0,0,.744-.308l.81.629a.805.805,0,0,0,1.072-.066l.853-.853a.807.807,0,0,0,.069-1.075l-.629-.809a5,5,0,0,0,.308-.744l1.016-.129a.811.811,0,0,0,.715-.8V5.893a.81.81,0,0,0-.713-.8ZM6.5,9.208A2.708,2.708,0,1,1,9.208,6.5,2.711,2.711,0,0,1,6.5,9.208Z" transform="translate(-166 1220)"/>
    </g>
  </g>
</svg>
