<svg width="32" height="32" viewBox="0 0 32 32" fill="none" xmlns="http://www.w3.org/2000/svg">
<rect x="0.75" y="0.75" width="30.5" height="30.5" rx="3.25" fill="white" stroke="#DF3034" stroke-width="0.5"/>
<path d="M22.75 11.125H20.0807C19.5962 11.125 19.1673 10.816 19.0135 10.3555L18.7765 9.64375C18.6228 9.184 18.1945 8.875 17.7092 8.875H14.29C13.8055 8.875 13.3765 9.184 13.2227 9.64375L12.9865 10.3555C12.8327 10.816 12.4038 11.125 11.9193 11.125H9.25C9.043 11.125 8.875 11.293 8.875 11.5C8.875 11.707 9.043 11.875 9.25 11.875H10.399L10.9855 20.6748C11.077 22.0488 12.2275 23.125 13.6045 23.125H18.3947C19.7717 23.125 20.9222 22.0488 21.0137 20.6748L21.6002 11.875H22.75C22.957 11.875 23.125 11.707 23.125 11.5C23.125 11.293 22.957 11.125 22.75 11.125ZM13.9345 9.88151C13.9855 9.72776 14.1288 9.625 14.2908 9.625H17.71C17.8713 9.625 18.0145 9.72776 18.0655 9.88151L18.3025 10.5932C18.3678 10.7882 18.463 10.9668 18.5815 11.125H13.4185C13.537 10.9668 13.633 10.7882 13.6983 10.5932L13.9345 9.88151ZM20.266 20.6245C20.2007 21.6062 19.3787 22.3742 18.3955 22.3742H13.6053C12.6213 22.3742 11.8 21.6055 11.7347 20.6245L11.1512 11.8742H11.9193C11.9995 11.8742 12.0782 11.8652 12.157 11.8555C12.1877 11.8637 12.217 11.8742 12.2507 11.8742H19.7507C19.7837 11.8742 19.8137 11.8637 19.8445 11.8555C19.9225 11.8652 20.0012 11.8742 20.0822 11.8742H20.8502L20.266 20.6245ZM17.875 15.25V19C17.875 19.207 17.707 19.375 17.5 19.375C17.293 19.375 17.125 19.207 17.125 19V15.25C17.125 15.043 17.293 14.875 17.5 14.875C17.707 14.875 17.875 15.0423 17.875 15.25ZM14.875 15.25V19C14.875 19.207 14.707 19.375 14.5 19.375C14.293 19.375 14.125 19.207 14.125 19V15.25C14.125 15.043 14.293 14.875 14.5 14.875C14.707 14.875 14.875 15.0423 14.875 15.25Z" fill="#DF3034"/>
</svg>
