<svg width="32" height="32" viewBox="0 0 32 32" fill="none" xmlns="http://www.w3.org/2000/svg">
<rect x="0.75" y="0.75" width="30.5" height="30.5" rx="6.25" fill="white" stroke="#464555" stroke-width="0.5"/>
<path d="M22.6666 19.16V11.1134C22.6666 10.3134 22.0133 9.72002 21.2199 9.78669H21.1799C19.7799 9.90669 17.6533 10.62 16.4666 11.3667L16.3533 11.44C16.1599 11.56 15.8399 11.56 15.6466 11.44L15.4799 11.34C14.2933 10.6 12.1733 9.89336 10.7733 9.78002C9.97992 9.71336 9.33325 10.3134 9.33325 11.1067V19.16C9.33325 19.8 9.85325 20.4 10.4933 20.48L10.6866 20.5067C12.1333 20.7 14.3666 21.4334 15.6466 22.1334L15.6733 22.1467C15.8533 22.2467 16.1399 22.2467 16.3133 22.1467C17.5933 21.44 19.8333 20.7 21.2866 20.5067L21.5066 20.48C22.1466 20.4 22.6666 19.8 22.6666 19.16Z" stroke="#464555" stroke-linecap="round" stroke-linejoin="round"/>
<path d="M16 11.66V21.66" stroke="#464555" stroke-linecap="round" stroke-linejoin="round"/>
<path d="M13.1667 13.66H11.6667" stroke="#464555" stroke-linecap="round" stroke-linejoin="round"/>
<path d="M13.6667 15.66H11.6667" stroke="#464555" stroke-linecap="round" stroke-linejoin="round"/>
</svg>
